<svg xmlns="http://www.w3.org/2000/svg" viewBox="2950 4529 150 50.82">
    <defs>
        <style>
            .cls-1{fill:url(#linear-gradient)}.cls-2,.cls-3,.cls-7,.cls-8{fill-rule:evenodd}.cls-2{fill:url(#linear-gradient-2)}.cls-3{fill:#4990e2}.cls-4{fill:#ebebeb}.cls-5,.cls-7{fill:#fff}.cls-5{stroke:#fff}.cls-6{fill:url(#radial-gradient)}.cls-8{fill:rgba(74,74,74,.84)}.cls-9{filter:url(#Oval-4)}.cls-10{filter:url(#App-Store)}
        </style>
        <linearGradient id="linear-gradient" x1=".5" x2=".5" y1=".5" y2="1" gradientUnits="objectBoundingBox">
            <stop offset="0" stop-color="#f9f9f9"/>
            <stop offset="1" stop-color="#e1e1e1"/>
        </linearGradient>
        <linearGradient id="linear-gradient-2" x1="-.757" x2="1.849" y1="-.669" y2="1.829" gradientUnits="objectBoundingBox">
            <stop offset="0" stop-color="#43a7f5"/>
            <stop offset="1" stop-color="#2066da"/>
        </linearGradient>
        <filter id="App-Store" width="86.224" height="31.792" x="2995.24" y="4545.152" filterUnits="userSpaceOnUse">
            <feOffset/>
            <feGaussianBlur result="blur" stdDeviation="3"/>
            <feFlood flood-color="#498fe1" flood-opacity=".702"/>
            <feComposite in2="blur" operator="in"/>
            <feComposite in="SourceGraphic"/>
        </filter>
        <filter id="Oval-4" width="39" height="39" x="2954.5" y="4535.5" filterUnits="userSpaceOnUse">
            <feOffset dy="1"/>
            <feGaussianBlur result="blur-2" stdDeviation=".5"/>
            <feFlood flood-color="#fff" flood-opacity=".702"/>
            <feComposite in2="blur-2" operator="in"/>
            <feComposite in="SourceGraphic"/>
        </filter>
        <radialGradient id="radial-gradient" cx=".5" cy="0" r="1.229">
            <stop offset="0" stop-color="#4ca8f2"/>
            <stop offset="1" stop-color="#2066d8"/>
        </radialGradient>
    </defs>
    <g id="app-store-2" data-name="app-store" transform="translate(2946 4527)">
        <g id="Homepage" transform="translate(-72 -475)">
            <g id="Jumbotron">
                <g id="App-Store-3" data-name="App-Store" transform="translate(76 477)">
                    <g id="Rectangle-1-_-Google-Play-Icon-_-Imported-Layers-_-Imported-Layers-_-App-Store" data-name="Rectangle-1-+-Google-Play-Icon-+-Imported-Layers-+-Imported-Layers-+-App-Store">
                        <g id="Rectangle-1-_-Google-Play-Icon-_-Imported-Layers" data-name="Rectangle-1-+-Google-Play-Icon-+-Imported-Layers">
                            <rect id="Rectangle-1" width="150" height="50.82" class="cls-1" rx="4"/>
                        </g>
                        <path id="Imported-Layers" d="M28.761 18.427a5.436 5.436 0 0 1 3.986 2.207 4.559 4.559 0 0 0-2.372 3.829 4.316 4.316 0 0 0 2.98 4.017S31 33.714 28.363 33.714c-1.485 0-1.584-.8-3.558-.8-1.714 0-2.292.8-3.6.8-2.492 0-5.71-5.1-5.71-9.251 0-4.31 3.259-6.035 5.3-6.035 1.794 0 2.541.99 3.986.99 1.216 0 2.173-.99 3.976-.99zm-.418-4.395a4.282 4.282 0 0 1-4.126 4.64c-.359-2.688 2.272-4.5 4.126-4.64z" class="cls-2"/>
                        <g class="cls-10" transform="translate(-2950 -4529)">
                            <path id="App-Store-4" d="M64.112 36l-4.368-10.672h-1.136L54.24 36h1.06l1.056-2.624H62L63.056 36zM61.7 32.544h-5.04l2.528-6.24zm7.472 3.648c2.064 0 3.456-1.6 3.456-4.064 0-2.48-1.392-4.048-3.456-4.048a3.321 3.321 0 0 0-2.688 1.408v-1.216h-.832v10.672h.832v-4.192a3.3 3.3 0 0 0 2.688 1.44zm-.144-.752a3.15 3.15 0 0 1-2.544-1.408v-3.824a3.123 3.123 0 0 1 2.544-1.376c1.728 0 2.7 1.424 2.7 3.3s-.976 3.312-2.7 3.312zm9.216.752c2.064 0 3.456-1.6 3.456-4.064 0-2.48-1.392-4.048-3.456-4.048a3.321 3.321 0 0 0-2.688 1.408v-1.216h-.836v10.672h.832v-4.192a3.3 3.3 0 0 0 2.688 1.44zm-.144-.752a3.15 3.15 0 0 1-2.544-1.408v-3.824a3.123 3.123 0 0 1 2.544-1.376c1.728 0 2.7 1.424 2.7 3.3s-.976 3.312-2.7 3.312zm13.184.752c2.88 0 3.792-1.648 3.792-3.024 0-3.984-6.4-2.48-6.4-5.216 0-1.152 1.072-1.968 2.5-1.968a3.822 3.822 0 0 1 3.056 1.344l.608-.672a4.584 4.584 0 0 0-3.616-1.5c-1.936 0-3.5 1.1-3.5 2.848 0 3.728 6.4 2.1 6.4 5.232 0 .912-.624 2.128-2.8 2.128a4.411 4.411 0 0 1-3.344-1.552l-.592.688a4.958 4.958 0 0 0 3.9 1.7zm7.328 0a1.737 1.737 0 0 0 1.312-.48l-.32-.64a1.207 1.207 0 0 1-.864.368c-.544 0-.8-.432-.8-1.056v-5.376h1.56v-.736h-1.564V26.16h-.848v2.112h-1.28v.736h1.28v5.5c0 1.056.5 1.68 1.52 1.68zm5.984 0a3.759 3.759 0 0 0 3.728-4.064 3.726 3.726 0 1 0-7.424 0 3.753 3.753 0 0 0 3.7 4.064zm0-.752c-1.792 0-2.816-1.584-2.816-3.312 0-1.712 1.024-3.3 2.816-3.3 1.824 0 2.832 1.584 2.832 3.3 0 1.728-1.008 3.312-2.832 3.312zm6.7.56v-5.632a2.945 2.945 0 0 1 2.192-1.376 1.757 1.757 0 0 1 .416.032v-.912A3.32 3.32 0 0 0 111.3 29.6v-1.328h-.832V36zm7.664.192a3.986 3.986 0 0 0 3.024-1.248l-.432-.544a3.4 3.4 0 0 1-2.528 1.072A3.012 3.012 0 0 1 116 32.4h6.464v-.224c0-2.24-1.3-4.1-3.648-4.1a3.828 3.828 0 0 0-3.712 4.048 3.805 3.805 0 0 0 3.856 4.064zm2.656-4.448H116a2.909 2.909 0 0 1 2.8-2.944 2.833 2.833 0 0 1 2.816 2.944z" class="cls-3" data-name="App-Store" transform="translate(2950 4529)"/>
                        </g>
                        <g id="Group-6" transform="translate(6 7)">
                            <g class="cls-9" transform="translate(-2956 -4536)">
                                <circle id="Oval-4-2" cx="18" cy="18" r="18" class="cls-4" data-name="Oval-4" transform="translate(2956 4536)"/>
                            </g>
                            <g id="app-store-icon" transform="translate(4 4)">
                                <circle id="Oval-1" cx="14" cy="14" r="14" class="cls-5"/>
                                <circle id="Oval-1-2" cx="12.958" cy="12.958" r="12.958" class="cls-6" data-name="Oval-1" transform="translate(1.042 1.042)"/>
                                <path id="Shape" d="M4.667 13.066h3.789l-1.163 2.015H4.667v-2.015zM10.9 9.6l1.78 1.028-4.426 7.661L6.367 17.2 10.9 9.6zm-2.852 9.08c-.878.8-1.869 1.759-1.869 1.759-.559.534-.842.369-.631-.384 0 0 .39-1.32.652-2.5zm4.829-8.316s.351-.709.622-1.153c.411-.966-1.236-1.822-1.87-.954a22.447 22.447 0 0 0-.563 1.062zm7.038 4.006c.3.514.718 1.277 1.015 1.791l-1.818 1.05c-.3-.512-.727-1.272-1.028-1.783zm-.173-.37s-3.417-5.893-5.114-8.8c-.627-.634-2.181.308-1.876 1.184 1.675 2.9 5.128 8.74 5.128 8.74zm-.18 3.444c.554-.32.859-.515 1.413-.835 1.536.558 1.67 3.165 1.056 4.379-.355.542-.142-.525-1.008-1.061-1.683-1.043-1.524-1.546-1.6-1.915a.887.887 0 0 1 .139-.568zm-7.788-4.378h4.542l1.165 2.018h-6.9l1.19-2.018zm11.621 0v1.968h-2.688c-.4-.656-.669-1.312-1.066-1.968z" class="cls-7"/>
                            </g>
                        </g>
                    </g>
                    <path id="AVAILABLE-IN" d="M55.457 16.449l.184-.59h1.844l.191.59a2.176 2.176 0 0 0 .09.246.541.541 0 0 0 .121.176.512.512 0 0 0 .189.125.719.719 0 0 0 .26.043.935.935 0 0 0 .256-.039.8.8 0 0 0 .238-.111.605.605 0 0 0 .176-.187.5.5 0 0 0 .068-.262.611.611 0 0 0-.018-.141q-.018-.074-.064-.215l-1.219-3.555q-.043-.125-.084-.225a1.957 1.957 0 0 0-.084-.18 1.223 1.223 0 0 0-.092-.146 1.088 1.088 0 0 0-.107-.125.873.873 0 0 0-.322-.193 1.764 1.764 0 0 0-.973 0 .873.873 0 0 0-.322.193.957.957 0 0 0-.105.125 1.676 1.676 0 0 0-.092.146 1.658 1.658 0 0 0-.086.18q-.041.1-.084.225l-1.222 3.58q-.047.141-.064.215a.642.642 0 0 0-.018.148.458.458 0 0 0 .063.238.6.6 0 0 0 .164.18.736.736 0 0 0 .227.111.875.875 0 0 0 .25.037.72.72 0 0 0 .25-.039.48.48 0 0 0 .176-.109.549.549 0 0 0 .119-.186q.045-.111.088-.256zm1.719-1.605h-1.25l.387-1.3q.047-.16.084-.3t.068-.244l.059-.234h.016q.023.109.063.234l.07.246q.039.141.09.3zm2.383-2.285l1.184 3.648a1.958 1.958 0 0 0 .131.33.972.972 0 0 0 .174.24.868.868 0 0 0 .3.18 1.724 1.724 0 0 0 .975 0 .823.823 0 0 0 .295-.18.972.972 0 0 0 .174-.24 2.188 2.188 0 0 0 .135-.33l1.2-3.711q.043-.137.061-.213a.6.6 0 0 0 .018-.131.462.462 0 0 0-.066-.248.628.628 0 0 0-.17-.182.723.723 0 0 0-.23-.109.927.927 0 0 0-.248-.035.687.687 0 0 0-.236.039.467.467 0 0 0-.174.105.542.542 0 0 0-.121.188 2.212 2.212 0 0 0-.078.242l-.789 2.8q-.043.145-.074.287l-.055.256-.043.25h-.016q-.023-.121-.055-.254l-.062-.258q-.035-.141-.078-.281l-.848-2.8q-.043-.137-.084-.246a.5.5 0 0 0-.111-.18.5.5 0 0 0-.176-.111.689.689 0 0 0-.25-.041.892.892 0 0 0-.256.039.808.808 0 0 0-.242.119.666.666 0 0 0-.182.2.5.5 0 0 0-.07.268.636.636 0 0 0 .018.143q.018.076.061.217zm6.379 3.891l.184-.59h1.844l.191.59a2.177 2.177 0 0 0 .09.246.541.541 0 0 0 .121.176.512.512 0 0 0 .189.125.719.719 0 0 0 .26.043.935.935 0 0 0 .255-.04.8.8 0 0 0 .238-.111.6.6 0 0 0 .176-.187.5.5 0 0 0 .068-.262.611.611 0 0 0-.018-.141q-.018-.074-.064-.215l-1.219-3.555q-.043-.125-.084-.225a1.956 1.956 0 0 0-.084-.18 1.222 1.222 0 0 0-.092-.146 1.088 1.088 0 0 0-.107-.125.873.873 0 0 0-.322-.193 1.764 1.764 0 0 0-.973 0 .873.873 0 0 0-.322.193.957.957 0 0 0-.105.125 1.677 1.677 0 0 0-.092.146 1.659 1.659 0 0 0-.086.18q-.041.1-.084.225l-1.219 3.578q-.047.141-.064.215a.642.642 0 0 0-.018.148.458.458 0 0 0 .063.238.6.6 0 0 0 .164.18.736.736 0 0 0 .227.111.875.875 0 0 0 .25.037.72.72 0 0 0 .25-.039.48.48 0 0 0 .176-.109.549.549 0 0 0 .119-.186q.045-.111.088-.256zm1.719-1.605h-1.25l.387-1.3q.047-.16.084-.3t.068-.245l.054-.238h.016q.023.109.063.234l.07.246q.039.141.09.3zm3.035-2.656v4.241a.576.576 0 0 0 .166.443.939.939 0 0 0 1.031 0 .576.576 0 0 0 .166-.443v-4.242a.576.576 0 0 0-.166-.443.935.935 0 0 0-1.029 0 .572.572 0 0 0-.168.443zm5.84 3.734h-1.539v-3.735a.576.576 0 0 0-.166-.443.935.935 0 0 0-1.029 0 .572.572 0 0 0-.168.443v4.207a.556.556 0 0 0 .609.605h2.293a.44.44 0 0 0 .34-.131.74.74 0 0 0 0-.814.438.438 0 0 0-.338-.133zm2.52.527l.184-.59h1.844l.191.59a2.177 2.177 0 0 0 .09.246.541.541 0 0 0 .121.176.512.512 0 0 0 .188.128.719.719 0 0 0 .26.043.935.935 0 0 0 .256-.043.8.8 0 0 0 .238-.111.6.6 0 0 0 .176-.189.5.5 0 0 0 .068-.262.611.611 0 0 0-.018-.141q-.018-.074-.064-.215l-1.219-3.555q-.043-.125-.084-.225a1.956 1.956 0 0 0-.084-.18 1.223 1.223 0 0 0-.092-.146 1.089 1.089 0 0 0-.107-.121.873.873 0 0 0-.322-.193 1.764 1.764 0 0 0-.973 0 .873.873 0 0 0-.322.193.957.957 0 0 0-.105.125 1.637 1.637 0 0 0-.178.326q-.041.1-.084.225L77.8 16.109q-.047.141-.064.215a.642.642 0 0 0-.018.148.458.458 0 0 0 .063.238.6.6 0 0 0 .164.18.736.736 0 0 0 .227.111.875.875 0 0 0 .25.037.72.72 0 0 0 .25-.039.48.48 0 0 0 .176-.109.549.549 0 0 0 .119-.186q.045-.111.088-.256zm1.719-1.605H79.52l.387-1.3q.047-.16.084-.3t.068-.245l.059-.234h.016q.023.109.063.234l.07.246q.039.141.09.3zm4.84 1.2h-.477v-1.326h.477a1.781 1.781 0 0 1 .434.045.8.8 0 0 1 .287.129.493.493 0 0 1 .162.205.691.691 0 0 1 .051.27.661.661 0 0 1-.055.271.554.554 0 0 1-.17.213.855.855 0 0 1-.289.141 1.512 1.512 0 0 1-.42.051zm-.039-2.262h-.437v-1.209h.434a1.47 1.47 0 0 1 .373.041.676.676 0 0 1 .25.117.458.458 0 0 1 .141.184.628.628 0 0 1 .045.244.639.639 0 0 1-.049.252.5.5 0 0 1-.148.2.752.752 0 0 1-.25.127 1.208 1.208 0 0 1-.357.047zm-1.766-1.559v4.172a.556.556 0 0 0 .609.605h1.141a4 4 0 0 0 1.068-.125 2.117 2.117 0 0 0 .734-.348 1.374 1.374 0 0 0 .424-.528 1.626 1.626 0 0 0 .137-.67 1.256 1.256 0 0 0-.074-.441 1.069 1.069 0 0 0-.211-.35 1.136 1.136 0 0 0-.328-.248 1.459 1.459 0 0 0-.422-.137v-.016a1.358 1.358 0 0 0 .359-.176 1.119 1.119 0 0 0 .266-.26 1.161 1.161 0 0 0 .168-.336 1.336 1.336 0 0 0 .059-.4 1.228 1.228 0 0 0-.115-.527 1.1 1.1 0 0 0-.371-.428 1.987 1.987 0 0 0-.656-.285 3.91 3.91 0 0 0-.967-.1h-1.212a.556.556 0 0 0-.609.605zm8.348 3.7h-1.54v-3.736a.576.576 0 0 0-.166-.443.935.935 0 0 0-1.029 0 .572.572 0 0 0-.168.443v4.207a.556.556 0 0 0 .609.605h2.293a.44.44 0 0 0 .34-.131.74.74 0 0 0 0-.814.438.438 0 0 0-.338-.133zm2.9.047v-1.2h1.387a.4.4 0 0 0 .311-.129.662.662 0 0 0 0-.758.4.4 0 0 0-.311-.129h-1.389v-1.107h1.637a.422.422 0 0 0 .326-.129.69.69 0 0 0 0-.775.426.426 0 0 0-.326-.127H94.3a.556.556 0 0 0-.609.605v4.172A.556.556 0 0 0 94.3 17h2.41a.421.421 0 0 0 .322-.127.69.69 0 0 0 0-.775.417.417 0 0 0-.322-.129zm5.836-3.781v4.24a.576.576 0 0 0 .166.443.939.939 0 0 0 1.031 0 .576.576 0 0 0 .166-.443v-4.242a.576.576 0 0 0-.166-.443.935.935 0 0 0-1.029 0 .572.572 0 0 0-.168.443zm2.938.313v4a.5.5 0 0 0 .15.389.645.645 0 0 0 .451.139.669.669 0 0 0 .461-.141.462.462 0 0 0 .145-.387l-.066-2.324q-.008-.187-.021-.361t-.029-.307l-.031-.293.016-.008.109.246q.047.113.119.254l.154.289 1.371 2.328a3.152 3.152 0 0 0 .193.3 1.027 1.027 0 0 0 .217.221.859.859 0 0 0 .277.135 1.369 1.369 0 0 0 .375.045.971.971 0 0 0 .705-.225.929.929 0 0 0 .229-.689v-4a.5.5 0 0 0-.15-.389.639.639 0 0 0-.447-.139.676.676 0 0 0-.463.141.459.459 0 0 0-.146.387l.07 2.324q0 .191.02.363l.027.3q.016.156.035.293l-.02.008-.109-.246-.119-.254q-.068-.141-.154-.289l-1.371-2.328a3.152 3.152 0 0 0-.193-.3 1.027 1.027 0 0 0-.217-.221.862.862 0 0 0-.275-.135 1.365 1.365 0 0 0-.377-.045.971.971 0 0 0-.705.225.923.923 0 0 0-.229.686z" class="cls-8"/>
                </g>
            </g>
        </g>
    </g>
</svg>
