<svg id="Group_9162" data-name="Group 9162" xmlns="http://www.w3.org/2000/svg" viewBox="0 2301 1366 413.104">
  <defs>
    <style>
      .cls-1 {
        fill: #75bae2;
        opacity: 0.3;
      }

      .cls-2 {
        fill: #63add7;
      }
    </style>
  </defs>
  <path id="Path_14359" data-name="Path 14359" class="cls-1" d="M0,382.494s94.306-29.8,162.456-6.776S363.3,476.41,445.148,460.705s96.13-33.852,179.487,9.321,63.048,59.61,123.971,89.186,146.05,0,146.05,0,107.777-44.167,184.662-23.567,110.615,52.462,191.846,64.608S1366,624.86,1366,624.86V778.888H0Z" transform="translate(1366 3081.093) rotate(180)"/>
  <path id="Path_14360" data-name="Path 14360" class="cls-2" d="M0,382.3s94.306-29.429,162.456-6.692S363.3,475.05,445.148,459.54s96.13-33.431,179.487,9.205,63.048,58.868,123.971,88.076,146.05,0,146.05,0,107.777-43.618,184.662-23.274,110.615,51.81,191.846,63.8,94.836,24.3,94.836,24.3V725.358H0Z" transform="translate(1366 3026.358) rotate(180)"/>
</svg>
