<svg xmlns="http://www.w3.org/2000/svg" viewBox="3053.577 3271 66.126 66.126">
    <defs>
        <style>
            .cls-1{opacity:.34}.cls-2{fill:#63add7}
        </style>
    </defs>
    <g id="data_icon" transform="translate(3053.577 3271)">
        <g id="Group_9250" class="cls-1" data-name="Group 9250">
            <g id="Group_9249" data-name="Group 9249">
                <path id="Path_14804" d="M60.616 0H5.511A5.517 5.517 0 0 0 0 5.511v38.573a5.517 5.517 0 0 0 5.511 5.511h18.517l-1.8 9.919h-4.33a3.306 3.306 0 1 0 0 6.613h30.334a3.306 3.306 0 0 0 0-6.613H43.9l-1.8-9.919h18.516a5.517 5.517 0 0 0 5.511-5.511V5.511A5.517 5.517 0 0 0 60.616 0zM42.982 61.718h5.25a1.1 1.1 0 1 1 0 2.2H17.894a1.1 1.1 0 0 1 0-2.2h14.067a1.1 1.1 0 1 0 0-2.2h-7.5l1.8-9.919h13.59l1.8 9.919h-3.077a1.1 1.1 0 1 0 0 2.2zm20.94-17.634a3.31 3.31 0 0 1-3.306 3.306H5.511A3.31 3.31 0 0 1 2.2 44.084v-3.306h61.722zm0-5.511H2.2V5.511A3.31 3.31 0 0 1 5.511 2.2h55.105a3.31 3.31 0 0 1 3.306 3.306z" data-name="Path 14804"/>
            </g>
        </g>
        <g id="Group_9252" data-name="Group 9252" transform="translate(4.408 9.919)">
            <g id="Group_9251" data-name="Group 9251">
                <path id="Path_14805" d="M57.348 84.123H46.327V73.1a1.1 1.1 0 0 0-1.1-1.1 13.225 13.225 0 1 0 13.224 13.225 1.1 1.1 0 0 0-1.103-1.102zM45.225 96.246a11.021 11.021 0 0 1-1.1-21.987v10.966a1.1 1.1 0 0 0 1.1 1.1h10.966a11.037 11.037 0 0 1-10.966 9.921z" class="cls-2" data-name="Path 14805" transform="translate(-32 -72)"/>
            </g>
        </g>
        <g id="Group_9254" data-name="Group 9254" transform="translate(20.94 5.511)">
            <g id="Group_9253" data-name="Group 9253">
                <path id="Path_14806" d="M153.1 40a1.1 1.1 0 0 0-1.1 1.1v12.125a1.1 1.1 0 0 0 1.1 1.1h12.123a1.1 1.1 0 0 0 1.1-1.1A13.24 13.24 0 0 0 153.1 40zm1.1 12.123v-9.864a11.04 11.04 0 0 1 9.864 9.864z" class="cls-2" data-name="Path 14806" transform="translate(-152 -40)"/>
            </g>
        </g>
        <g id="Group_9268" data-name="Group 9268" transform="translate(29.757 42.982)">
            <g id="Group_9267" data-name="Group 9267">
                <path id="Path_14813" d="M221.511 312H217.1a1.1 1.1 0 1 0 0 2.2h4.408a1.1 1.1 0 1 0 0-2.2z" class="cls-2" data-name="Path 14813" transform="translate(-216 -312)"/>
            </g>
        </g>
        <g id="Group_9269" data-name="Group 9269" transform="translate(38.381 30.363)">
            <g id="Group_9223" data-name="Group 9223">
                <path id="Path_14791" d="M282.776 247.467a1.111 1.111 0 0 0-1.176 1.176v3.527a1.176 1.176 0 0 0 2.351 0v-3.527a1.111 1.111 0 0 0-1.175-1.176z" class="cls-2" data-name="Path 14791" transform="translate(-281.6 -247.467)"/>
            </g>
        </g>
        <g id="Group_9270" data-name="Group 9270" transform="translate(43.083 25.661)">
            <g id="Group_9225" data-name="Group 9225">
                <path id="Path_14792" d="M316.91 213.333a1.111 1.111 0 0 0-1.176 1.176v8.229a1.176 1.176 0 1 0 2.351 0v-8.229a1.111 1.111 0 0 0-1.175-1.176z" class="cls-2" data-name="Path 14792" transform="translate(-315.734 -213.333)"/>
            </g>
        </g>
        <g id="Group_9271" data-name="Group 9271" transform="translate(47.786 28.012)">
            <g id="Group_9227" data-name="Group 9227">
                <path id="Path_14793" d="M351.043 230.4a1.111 1.111 0 0 0-1.176 1.176v5.878a1.176 1.176 0 1 0 2.351 0v-5.878a1.111 1.111 0 0 0-1.175-1.176z" class="cls-2" data-name="Path 14793" transform="translate(-349.867 -230.4)"/>
            </g>
        </g>
        <g id="Group_9272" data-name="Group 9272" transform="translate(52.488 19.783)">
            <g id="Group_9229" data-name="Group 9229">
                <path id="Path_14794" d="M385.176 170.667a1.111 1.111 0 0 0-1.176 1.176v14.107a1.176 1.176 0 1 0 2.351 0v-14.107a1.111 1.111 0 0 0-1.175-1.176z" class="cls-2" data-name="Path 14794" transform="translate(-384 -170.667)"/>
            </g>
        </g>
        <g id="Group_9273" data-name="Group 9273" transform="translate(57.19 24.485)">
            <g id="Group_9231" data-name="Group 9231">
                <path id="Path_14795" d="M419.31 204.8a1.111 1.111 0 0 0-1.176 1.176v9.4a1.176 1.176 0 1 0 2.351 0v-9.4a1.111 1.111 0 0 0-1.175-1.176z" class="cls-2" data-name="Path 14795" transform="translate(-418.134 -204.8)"/>
            </g>
        </g>
        <g id="Group_9274" data-name="Group 9274" transform="translate(41.908 11.756)">
            <g id="Group_9239" data-name="Group 9239">
                <path id="Path_14799" d="M317.78 102.4h-9.4a1.176 1.176 0 1 0 0 2.351h9.4a1.176 1.176 0 0 0 0-2.351z" class="cls-2" data-name="Path 14799" transform="translate(-307.2 -102.4)"/>
            </g>
        </g>
        <g id="Group_9275" data-name="Group 9275" transform="translate(57.19 11.756)">
            <g id="Group_9241" data-name="Group 9241">
                <path id="Path_14800" d="M420.248 102.754c-.117 0-.117-.118-.235-.118s-.118-.118-.235-.118c-.117-.118-.117-.118-.235-.118a1.641 1.641 0 0 0-1.058.353 1.067 1.067 0 0 0-.353.823c0 .235.117.353.117.47s.118.235.235.353a1.067 1.067 0 0 0 .823.353h.235c.118-.118.118-.118.235-.118a3378.379 3378.379 0 0 0 .47-.235c.118-.118.118-.235.235-.353a.706.706 0 0 0 .118-.47 1.067 1.067 0 0 0-.352-.822z" class="cls-2" data-name="Path 14800" transform="translate(-418.132 -102.401)"/>
            </g>
        </g>
        <g id="Group_9276" data-name="Group 9276" transform="translate(53.664 5.878)">
            <g id="Group_9243" data-name="Group 9243">
                <path id="Path_14801" d="M397.236 59.733h-3.526a1.176 1.176 0 0 0 0 2.351h3.527a1.176 1.176 0 0 0 0-2.351z" class="cls-2" data-name="Path 14801" transform="translate(-392.534 -59.733)"/>
            </g>
        </g>
        <g id="Group_9277" data-name="Group 9277" transform="translate(41.908 5.878)">
            <g id="Group_9245" data-name="Group 9245">
                <path id="Path_14802" d="M310.727 59.733h-2.351a1.176 1.176 0 1 0 0 2.351h2.351a1.176 1.176 0 1 0 0-2.351z" class="cls-2" data-name="Path 14802" transform="translate(-307.2 -59.733)"/>
            </g>
        </g>
        <g id="Group_9278" data-name="Group 9278" transform="translate(48.961 5.878)">
            <g id="Group_9247" data-name="Group 9247">
                <path id="Path_14803" d="M360.515 60.087c-.117 0-.117-.118-.235-.118s-.118-.118-.235-.118c-.118-.118-.118-.118-.235-.118h-.47c-.117.118-.117.118-.235.118s-.118.118-.235.118l-.117.118c-.117.118-.235.235-.235.353a.707.707 0 0 0-.118.47 1.067 1.067 0 0 0 .353.823l.117.118c.118 0 .118.118.235.118.118.118.118.118.235.118h.353c.117-.118.117-.118.235-.118a20253.809 20253.809 0 0 0 .47-.235 1.067 1.067 0 0 0 .353-.823v-.47c-.001-.119-.118-.241-.236-.354z" class="cls-2" data-name="Path 14803" transform="translate(-358.399 -59.734)"/>
            </g>
        </g>
    </g>
</svg>
