<svg xmlns="http://www.w3.org/2000/svg" viewBox="2617.5 3270.173 67.443 67.453">
    <defs>
        <style>
            .cls-1{fill:#63add7}.cls-2{opacity:.34}.cls-3{stroke:#000}
        </style>
    </defs>
    <g id="efisien_icon" transform="translate(-1220 177.673)">
        <g id="flash" transform="translate(3858.698 3101.99)">
            <g id="Group_9209" data-name="Group 9209">
                <g id="Group_9208" data-name="Group 9208">
                    <path id="Path_14747" d="M149.023 20.049a.965.965 0 0 0-.856-.519h-8.357l5.067-18.308a.965.965 0 0 0-.93-1.222h-11.332a.965.965 0 0 0-.93.708l-7.475 27.006a.965.965 0 0 0 .93 1.223h8.36l-5.067 18.308a.966.966 0 0 0 1.723.809l18.807-27.006a.966.966 0 0 0 .06-.999zM131.8 42.311l3.9-14.082a.965.965 0 0 0-.93-1.223h-8.356l6.94-25.075h9.329l-5.067 18.308a.965.965 0 0 0 .93 1.223h7.776z" class="cls-1" data-name="Path 14747" transform="translate(-124.174)"/>
                </g>
            </g>
            <g id="Group_9211" data-name="Group 9211" transform="translate(11.996 13.054)">
                <g id="Group_9210" data-name="Group 9210">
                    <path id="Path_14748" d="M252.259 137.933a.966.966 0 0 0-1.19.67l-.135.482a.965.965 0 1 0 1.86.519l.135-.482a.965.965 0 0 0-.67-1.189z" class="cls-1" data-name="Path 14748" transform="translate(-250.899 -137.897)"/>
                </g>
            </g>
            <g id="Group_9213" data-name="Group 9213" transform="translate(12.94 2.819)">
                <g id="Group_9212" data-name="Group 9212">
                    <path id="Path_14749" d="M264.142 29.817a.966.966 0 0 0-1.19.67l-2.052 7.338a.965.965 0 1 0 1.86.519l2.049-7.338a.966.966 0 0 0-.667-1.189z" class="cls-1" data-name="Path 14749" transform="translate(-260.867 -29.781)"/>
                </g>
            </g>
        </g>
        <g id="time-passing" class="cls-2" transform="translate(3838 3093)">
            <path id="Path_14750" d="M1.113 34.34a1.107 1.107 0 0 0 1.107-1.108A31 31 0 0 1 52.4 8.862h-5.87a1.108 1.108 0 1 0 0 2.215h8.77a1.061 1.061 0 0 0 .214 0h.986V1.108a1.108 1.108 0 0 0-2.215 0v6.436A33.205 33.205 0 0 0 0 33.232a1.107 1.107 0 0 0 1.113 1.108z" class="cls-3" data-name="Path 14750" transform="translate(-.005)"/>
            <path id="Path_14757" d="M11.915 52.7a1.1 1.1 0 0 0 .233 1.55 1.071 1.071 0 0 0 .654.21 1.1 1.1 0 0 0 .9-.443 1.122 1.122 0 0 0-.233-1.55 1.1 1.1 0 0 0-1.554.233z" class="cls-3" data-name="Path 14757" transform="translate(1.255 5.63)"/>
            <path id="Path_14758" d="M7.431 46.315a1.111 1.111 0 1 0-.9 1.761 1.093 1.093 0 0 0 .642-.209 1.116 1.116 0 0 0 .258-1.552z" class="cls-3" data-name="Path 14758" transform="translate(.578 4.941)"/>
            <path id="Path_14759" d="M7.66 48.477a1.1 1.1 0 0 0-.089 1.561 1.067 1.067 0 0 0 .831.378 1.107 1.107 0 1 0-.742-1.939z" class="cls-3" data-name="Path 14759" transform="translate(.78 5.193)"/>
            <path id="Path_14760" d="M11.246 50.628a1.11 1.11 0 1 0-.753 1.929 1.134 1.134 0 0 0 .82-.354 1.1 1.1 0 0 0-.066-1.562z" class="cls-3" data-name="Path 14760" transform="translate(1.006 5.424)"/>
            <path id="Path_14761" d="M5.877 43.894h-.011a1.1 1.1 0 1 0-.953 1.651 1.078 1.078 0 0 0 .543-.144 1.107 1.107 0 0 0 .421-1.507z" class="cls-3" data-name="Path 14761" transform="translate(.404 4.669)"/>
            <path id="Path_14762" d="M59.049 32.336h.044a1.088 1.088 0 1 0-.044 0z" class="cls-3" data-name="Path 14762" transform="translate(6.242 3.245)"/>
            <path id="Path_14763" d="M1.384 34.205A1.109 1.109 0 0 0 1.152 32a1.105 1.105 0 0 0 .111 2.2z" class="cls-3" data-name="Path 14763" transform="translate(.012 3.447)"/>
            <path id="Path_14764" d="M1.955 37.143a1.1 1.1 0 0 0-.455-2.161 1.1 1.1 0 0 0 .222 2.183.833.833 0 0 0 .233-.022z" class="cls-3" data-name="Path 14764" transform="translate(.061 3.766)"/>
            <path id="Path_14765" d="M4.571 41.314a1.108 1.108 0 0 0-2.027.9 1.126 1.126 0 0 0 1.019.666 1.056 1.056 0 0 0 .443-.1 1.114 1.114 0 0 0 .565-1.466z" class="cls-3" data-name="Path 14765" transform="translate(.259 4.38)"/>
            <path id="Path_14766" d="M3.544 38.625a1.1 1.1 0 0 0-1.385-.72 1.105 1.105 0 0 0 .332 2.16 1.219 1.219 0 0 0 .343-.044 1.113 1.113 0 0 0 .71-1.396z" class="cls-3" data-name="Path 14766" transform="translate(.144 4.078)"/>
            <path id="Path_14767" d="M29.575 57.99a1.108 1.108 0 1 0-.044 2.215h.022a1.1 1.1 0 0 0 1.107-1.085 1.112 1.112 0 0 0-1.085-1.13z" class="cls-3" data-name="Path 14767" transform="translate(3.059 6.248)"/>
            <path id="Path_14768" d="M52.158 47.182a1.108 1.108 0 0 0 .188 1.551 1.142 1.142 0 0 0 .687.233 1.107 1.107 0 1 0-.875-1.783z" class="cls-3" data-name="Path 14768" transform="translate(5.589 5.037)"/>
            <path id="Path_14769" d="M45.88 53.1a1.1 1.1 0 0 0-.277 1.54 1.091 1.091 0 0 0 .908.476 1.105 1.105 0 1 0-.631-2.016z" class="cls-3" data-name="Path 14769" transform="translate(4.886 5.7)"/>
            <path id="Path_14770" d="M48.173 51.345a1.108 1.108 0 1 0 1.562.123 1.107 1.107 0 0 0-1.562-.123z" class="cls-3" data-name="Path 14770" transform="translate(5.143 5.503)"/>
            <path id="Path_14771" d="M55.329 44.455a1.11 1.11 0 1 0-1.174 1.883 1.141 1.141 0 0 0 .587.166 1.1 1.1 0 0 0 .942-.522 1.108 1.108 0 0 0-.355-1.527z" class="cls-3" data-name="Path 14771" transform="translate(5.773 4.772)"/>
            <path id="Path_14772" d="M50.275 49.363a1.094 1.094 0 0 0 .033 1.562 1.1 1.1 0 0 0 1.562-.034 1.1 1.1 0 1 0-1.6-1.528z" class="cls-3" data-name="Path 14772" transform="translate(5.377 5.282)"/>
            <path id="Path_14773" d="M58.977 33.11a1.118 1.118 0 0 0-1.252.943 1.1 1.1 0 0 0 .942 1.252.785.785 0 0 0 .155.011 1.108 1.108 0 0 0 .155-2.206z" class="cls-3" data-name="Path 14773" transform="translate(6.212 3.566)"/>
            <path id="Path_14774" d="M58.519 36.072a1.114 1.114 0 1 0-.543 2.16 1.041 1.041 0 0 0 .266.033 1.115 1.115 0 0 0 .277-2.193z" class="cls-3" data-name="Path 14774" transform="translate(6.15 3.883)"/>
            <path id="Path_14775" d="M15.867 54.075a1.111 1.111 0 0 0-1.141 1.906 1.062 1.062 0 0 0 .565.155 1.112 1.112 0 0 0 .576-2.062z" class="cls-3" data-name="Path 14775" transform="translate(1.523 5.809)"/>
            <path id="Path_14776" d="M57.749 38.977a1.109 1.109 0 0 0-.764 2.083 1.127 1.127 0 0 0 .377.068 1.11 1.11 0 0 0 .388-2.15z" class="cls-3" data-name="Path 14776" transform="translate(6.056 4.192)"/>
            <path id="Path_14777" d="M56.68 41.781a1.11 1.11 0 0 0-.975 1.994 1.083 1.083 0 0 0 .487.112 1.109 1.109 0 0 0 .487-2.106z" class="cls-3" data-name="Path 14777" transform="translate(5.929 4.489)"/>
            <path id="Path_14778" d="M26.7 57.791a1.1 1.1 0 1 0-.266 2.192V60h.133a1.106 1.106 0 0 0 .133-2.2z" class="cls-3" data-name="Path 14778" transform="translate(2.737 6.225)"/>
            <path id="Path_14779" d="M21.088 56.506a1.107 1.107 0 0 0-.72 2.094 1.393 1.393 0 0 0 .366.055 1.1 1.1 0 0 0 .354-2.149z" class="cls-3" data-name="Path 14779" transform="translate(2.108 6.081)"/>
            <path id="Path_14780" d="M23.857 57.293a1.108 1.108 0 0 0-.5 2.16.992.992 0 0 0 .255.022 1.1 1.1 0 0 0 .244-2.182z" class="cls-3" data-name="Path 14780" transform="translate(2.419 6.17)"/>
            <path id="Path_14781" d="M18.418 55.431a1.1 1.1 0 0 0-1.473.531 1.11 1.11 0 0 0 .532 1.473 1.154 1.154 0 0 0 .465.1 1.1 1.1 0 0 0 .476-2.1z" class="cls-3" data-name="Path 14781" transform="translate(1.809 5.96)"/>
            <path id="Path_14782" d="M35.313 57.512a1.106 1.106 0 0 0 .21 2.194 1.1 1.1 0 0 0 .2-.012 1.122 1.122 0 0 0 .886-1.3 1.108 1.108 0 0 0-1.296-.882z" class="cls-3" data-name="Path 14782" transform="translate(3.702 6.194)"/>
            <path id="Path_14783" d="M38.112 56.835a1.094 1.094 0 0 0-.742 1.372 1.113 1.113 0 0 0 1.063.788 1.161 1.161 0 0 0 .321-.044 1.106 1.106 0 1 0-.642-2.116z" class="cls-3" data-name="Path 14783" transform="translate(4.015 6.118)"/>
            <path id="Path_14784" d="M40.831 55.858a1.1 1.1 0 0 0 .421 2.127 1.21 1.21 0 0 0 .432-.076 1.11 1.11 0 0 0-.853-2.05z" class="cls-3" data-name="Path 14784" transform="translate(4.32 6.009)"/>
            <path id="Path_14785" d="M32.452 57.9a1.11 1.11 0 0 0 .1 2.215h.089V60.1a1.089 1.089 0 0 0 1.008-1.185 1.115 1.115 0 0 0-1.197-1.015z" class="cls-3" data-name="Path 14785" transform="translate(3.382 6.238)"/>
            <path id="Path_14786" d="M43.431 54.614a1.11 1.11 0 0 0 .532 2.083 1 1 0 0 0 .521-.144 1.1 1.1 0 1 0-1.052-1.939z" class="cls-3" data-name="Path 14786" transform="translate(4.611 5.869)"/>
        </g>
    </g>
</svg>
