<svg xmlns="http://www.w3.org/2000/svg" viewBox="3110 4529 150 50.82">
    <defs>
        <style>
            .cls-1{fill:url(#linear-gradient)}.cls-2,.cls-3,.cls-5,.cls-8{fill-rule:evenodd}.cls-2{fill:url(#linear-gradient-2)}.cls-3{fill:#438de1}.cls-4{fill:#ebebeb}.cls-5{fill:rgba(74,74,74,.84)}.cls-6{stroke:#fff;stroke-width:3px}.cls-6,.cls-7{fill:url(#linear-gradient-3)}.cls-8{fill:url(#linear-gradient-5)}.cls-9{fill:url(#linear-gradient-6)}.cls-10{fill:url(#linear-gradient-7)}.cls-11{filter:url(#Google-Play)}
        </style>
        <linearGradient id="linear-gradient" x1=".5" x2=".5" y1=".5" y2="1" gradientUnits="objectBoundingBox">
            <stop offset="0" stop-color="#f9f9f9"/>
            <stop offset="1" stop-color="#e1e1e1"/>
        </linearGradient>
        <linearGradient id="linear-gradient-2" x1="-.757" x2="1.849" y1="-.669" y2="1.829" gradientUnits="objectBoundingBox">
            <stop offset="0" stop-color="#43a7f5"/>
            <stop offset="1" stop-color="#2066da"/>
        </linearGradient>
        <filter id="Google-Play" width="97.96" height="28.984" x="3157.428" y="4546.652" filterUnits="userSpaceOnUse">
            <feOffset/>
            <feGaussianBlur result="blur" stdDeviation="2.5"/>
            <feFlood flood-color="#438de1" flood-opacity=".702"/>
            <feComposite in2="blur" operator="in"/>
            <feComposite in="SourceGraphic"/>
        </filter>
        <linearGradient id="linear-gradient-3" x1=".192" x2=".693" y1="-.352" y2=".935" gradientUnits="objectBoundingBox">
            <stop offset="0" stop-color="#19a3b4"/>
            <stop offset=".348" stop-color="#5bc3af"/>
            <stop offset=".922" stop-color="#c9f7a6"/>
            <stop offset="1" stop-color="#d7fea5"/>
        </linearGradient>
        <linearGradient id="linear-gradient-5" x1="-.147" x2=".748" y1="-1.143" y2="1.142" gradientUnits="objectBoundingBox">
            <stop offset="0" stop-color="#fc227c"/>
            <stop offset="1" stop-color="#feeb7b"/>
        </linearGradient>
        <linearGradient id="linear-gradient-6" x1=".282" x2=".482" y1="-.148" y2=".829" gradientUnits="objectBoundingBox">
            <stop offset="0" stop-color="#0e4da0"/>
            <stop offset="1" stop-color="#6bfed4"/>
        </linearGradient>
        <linearGradient id="linear-gradient-7" x1="1.322" x2=".06" y1=".165" y2="1.263" gradientUnits="objectBoundingBox">
            <stop offset="0" stop-color="#fc472e"/>
            <stop offset=".003" stop-color="#fc472e"/>
            <stop offset="1" stop-color="#893cd8"/>
        </linearGradient>
    </defs>
    <g id="google-play-2" data-name="google-play" transform="translate(3106 4527)">
        <g id="Homepage" transform="translate(-234 -475)">
            <g id="Jumbotron">
                <g id="Google-Play-Button" transform="translate(238 477)">
                    <g id="Rectangle-1-_-Google-Play-Icon-_-Imported-Layers-_-Imported-Layers-_-App-Store" data-name="Rectangle-1-+-Google-Play-Icon-+-Imported-Layers-+-Imported-Layers-+-App-Store">
                        <g id="Rectangle-1-_-Google-Play-Icon-_-Imported-Layers" data-name="Rectangle-1-+-Google-Play-Icon-+-Imported-Layers">
                            <rect id="Rectangle-1" width="150" height="50.82" class="cls-1" rx="4"/>
                        </g>
                        <path id="Imported-Layers" d="M28.761 18.427a5.436 5.436 0 0 1 3.986 2.207 4.559 4.559 0 0 0-2.372 3.829 4.316 4.316 0 0 0 2.98 4.017S31 33.714 28.363 33.714c-1.485 0-1.584-.8-3.558-.8-1.714 0-2.292.8-3.6.8-2.492 0-5.71-5.1-5.71-9.251 0-4.31 3.259-6.035 5.3-6.035 1.794 0 2.541.99 3.986.99 1.216 0 2.173-.99 3.976-.99zm-.418-4.395a4.282 4.282 0 0 1-4.126 4.64c-.359-2.688 2.272-4.5 4.126-4.64z" class="cls-2"/>
                        <g class="cls-11" transform="translate(-3110 -4529)">
                            <path id="Google-Play-3" d="M60.336 36.208a5.387 5.387 0 0 0 4.048-1.776V30.7H59.44v.816h4.032v2.56a4.451 4.451 0 0 1-7.584-3.408 4.431 4.431 0 0 1 4.448-4.688 4.349 4.349 0 0 1 3.328 1.488l.688-.5a5.069 5.069 0 0 0-4.016-1.824 5.3 5.3 0 0 0-5.408 5.52 5.315 5.315 0 0 0 5.408 5.536zm9.6-.016a3.759 3.759 0 0 0 3.728-4.064 3.726 3.726 0 1 0-7.424 0 3.753 3.753 0 0 0 3.7 4.064zm0-.752c-1.792 0-2.816-1.584-2.816-3.312 0-1.712 1.024-3.3 2.816-3.3 1.824 0 2.832 1.584 2.832 3.3 0 1.728-1.008 3.312-2.832 3.312zm9.136.752a3.759 3.759 0 0 0 3.728-4.064 3.726 3.726 0 1 0-7.424 0 3.753 3.753 0 0 0 3.7 4.064zm0-.752c-1.792 0-2.816-1.584-2.816-3.312 0-1.712 1.024-3.3 2.816-3.3 1.824 0 2.832 1.584 2.832 3.3 0 1.728-1.008 3.312-2.832 3.312zm8.944 3.7c1.872 0 3.472-.848 3.472-3.2v-7.668h-.848v1.248a3.28 3.28 0 0 0-2.688-1.44c-2.048 0-3.44 1.6-3.44 4.048 0 2.48 1.392 4.032 3.44 4.032a3.319 3.319 0 0 0 2.688-1.46v1.232a2.345 2.345 0 0 1-2.624 2.448 2.973 2.973 0 0 1-2.576-1.08l-.48.672a3.723 3.723 0 0 0 3.056 1.168zm.08-3.728c-1.712 0-2.7-1.408-2.7-3.28s.992-3.3 2.7-3.3a3.11 3.11 0 0 1 2.544 1.408V34a3.11 3.11 0 0 1-2.54 1.408zM94.9 36V25.328h-.832V36zm6.016.192a3.986 3.986 0 0 0 3.024-1.248l-.44-.544a3.4 3.4 0 0 1-2.528 1.072 3.012 3.012 0 0 1-3.02-3.072h6.464v-.224c0-2.24-1.3-4.1-3.648-4.1a3.828 3.828 0 0 0-3.712 4.048 3.805 3.805 0 0 0 3.856 4.064zm2.656-4.448h-5.62a2.909 2.909 0 0 1 2.8-2.944 2.833 2.833 0 0 1 2.816 2.944zM111.648 36v-4.432h3.088a3.121 3.121 0 1 0 0-6.24h-4V36zm2.992-5.264h-2.992V26.16h2.992a2.289 2.289 0 1 1 0 4.576zM120.672 36V25.328h-.832V36zm8.336 0v-5.44c0-1.728-1.248-2.48-2.816-2.48a3.753 3.753 0 0 0-2.976 1.3l.464.576a3.015 3.015 0 0 1 2.432-1.136 1.833 1.833 0 0 1 2.064 1.776v1.564a3.342 3.342 0 0 0-2.624-1.1 2.556 2.556 0 0 0-2.7 2.56 2.588 2.588 0 0 0 2.7 2.576 3.365 3.365 0 0 0 2.624-1.1V36zm-3.168-.464a1.921 1.921 0 1 1 0-3.824 2.856 2.856 0 0 1 2.336 1.072v1.7a2.889 2.889 0 0 1-2.336 1.056zm5.248 3.488a3.27 3.27 0 0 0 .832.112 2.046 2.046 0 0 0 1.968-1.44l4-9.424h-.944l-2.784 6.752-2.816-6.752h-.928l3.28 7.792-.608 1.376c-.32.736-.672.944-1.184.944a1.928 1.928 0 0 1-.672-.128z" class="cls-3" data-name="Google-Play" transform="translate(3110 4529)"/>
                        </g>
                        <g id="Group-6" transform="translate(6 7)">
                            <circle id="Oval-4" cx="18" cy="18" r="18" class="cls-4"/>
                        </g>
                    </g>
                    <path id="AVAILABLE-IN" d="M55.457 16.449l.184-.59h1.844l.191.59a2.176 2.176 0 0 0 .09.246.541.541 0 0 0 .121.176.512.512 0 0 0 .189.125.719.719 0 0 0 .26.043.935.935 0 0 0 .256-.039.8.8 0 0 0 .238-.111.605.605 0 0 0 .176-.187.5.5 0 0 0 .068-.262.611.611 0 0 0-.018-.141q-.018-.074-.064-.215l-1.219-3.555q-.043-.125-.084-.225a1.957 1.957 0 0 0-.084-.18 1.223 1.223 0 0 0-.092-.146 1.088 1.088 0 0 0-.107-.125.873.873 0 0 0-.322-.193 1.764 1.764 0 0 0-.973 0 .873.873 0 0 0-.322.193.957.957 0 0 0-.105.125 1.676 1.676 0 0 0-.092.146 1.658 1.658 0 0 0-.086.18q-.041.1-.084.225l-1.222 3.58q-.047.141-.064.215a.642.642 0 0 0-.018.148.458.458 0 0 0 .063.238.6.6 0 0 0 .164.18.736.736 0 0 0 .227.111.875.875 0 0 0 .25.037.72.72 0 0 0 .25-.039.48.48 0 0 0 .176-.109.549.549 0 0 0 .119-.186q.045-.111.088-.256zm1.719-1.605h-1.25l.387-1.3q.047-.16.084-.3t.068-.244l.059-.234h.016q.023.109.063.234l.07.246q.039.141.09.3zm2.383-2.285l1.184 3.648a1.958 1.958 0 0 0 .131.33.972.972 0 0 0 .174.24.868.868 0 0 0 .3.18 1.724 1.724 0 0 0 .975 0 .823.823 0 0 0 .295-.18.972.972 0 0 0 .174-.24 2.188 2.188 0 0 0 .135-.33l1.2-3.711q.043-.137.061-.213a.6.6 0 0 0 .018-.131.462.462 0 0 0-.066-.248.628.628 0 0 0-.17-.182.723.723 0 0 0-.23-.109.927.927 0 0 0-.248-.035.687.687 0 0 0-.236.039.467.467 0 0 0-.174.105.542.542 0 0 0-.121.188 2.212 2.212 0 0 0-.078.242l-.789 2.8q-.043.145-.074.287l-.055.256-.043.25h-.016q-.023-.121-.055-.254l-.062-.258q-.035-.141-.078-.281l-.848-2.8q-.043-.137-.084-.246a.5.5 0 0 0-.111-.18.5.5 0 0 0-.176-.111.689.689 0 0 0-.25-.041.892.892 0 0 0-.256.039.808.808 0 0 0-.242.119.666.666 0 0 0-.182.2.5.5 0 0 0-.07.268.636.636 0 0 0 .018.143q.018.076.061.217zm6.379 3.891l.184-.59h1.844l.191.59a2.177 2.177 0 0 0 .09.246.541.541 0 0 0 .121.176.512.512 0 0 0 .189.125.719.719 0 0 0 .26.043.935.935 0 0 0 .255-.04.8.8 0 0 0 .238-.111.6.6 0 0 0 .176-.187.5.5 0 0 0 .068-.262.611.611 0 0 0-.018-.141q-.018-.074-.064-.215l-1.219-3.555q-.043-.125-.084-.225a1.956 1.956 0 0 0-.084-.18 1.222 1.222 0 0 0-.092-.146 1.088 1.088 0 0 0-.107-.125.873.873 0 0 0-.322-.193 1.764 1.764 0 0 0-.973 0 .873.873 0 0 0-.322.193.957.957 0 0 0-.105.125 1.677 1.677 0 0 0-.092.146 1.659 1.659 0 0 0-.086.18q-.041.1-.084.225l-1.219 3.578q-.047.141-.064.215a.642.642 0 0 0-.018.148.458.458 0 0 0 .063.238.6.6 0 0 0 .164.18.736.736 0 0 0 .227.111.875.875 0 0 0 .25.037.72.72 0 0 0 .25-.039.48.48 0 0 0 .176-.109.549.549 0 0 0 .119-.186q.045-.111.088-.256zm1.719-1.605h-1.25l.387-1.3q.047-.16.084-.3t.068-.245l.054-.238h.016q.023.109.063.234l.07.246q.039.141.09.3zm3.035-2.656v4.241a.576.576 0 0 0 .166.443.939.939 0 0 0 1.031 0 .576.576 0 0 0 .166-.443v-4.242a.576.576 0 0 0-.166-.443.935.935 0 0 0-1.029 0 .572.572 0 0 0-.168.443zm5.84 3.734h-1.539v-3.735a.576.576 0 0 0-.166-.443.935.935 0 0 0-1.029 0 .572.572 0 0 0-.168.443v4.207a.556.556 0 0 0 .609.605h2.293a.44.44 0 0 0 .34-.131.74.74 0 0 0 0-.814.438.438 0 0 0-.338-.133zm2.52.527l.184-.59h1.844l.191.59a2.177 2.177 0 0 0 .09.246.541.541 0 0 0 .121.176.512.512 0 0 0 .188.128.719.719 0 0 0 .26.043.935.935 0 0 0 .256-.043.8.8 0 0 0 .238-.111.6.6 0 0 0 .176-.189.5.5 0 0 0 .068-.262.611.611 0 0 0-.018-.141q-.018-.074-.064-.215l-1.219-3.555q-.043-.125-.084-.225a1.956 1.956 0 0 0-.084-.18 1.223 1.223 0 0 0-.092-.146 1.089 1.089 0 0 0-.107-.121.873.873 0 0 0-.322-.193 1.764 1.764 0 0 0-.973 0 .873.873 0 0 0-.322.193.957.957 0 0 0-.105.125 1.637 1.637 0 0 0-.178.326q-.041.1-.084.225L77.8 16.109q-.047.141-.064.215a.642.642 0 0 0-.018.148.458.458 0 0 0 .063.238.6.6 0 0 0 .164.18.736.736 0 0 0 .227.111.875.875 0 0 0 .25.037.72.72 0 0 0 .25-.039.48.48 0 0 0 .176-.109.549.549 0 0 0 .119-.186q.045-.111.088-.256zm1.719-1.605H79.52l.387-1.3q.047-.16.084-.3t.068-.245l.059-.234h.016q.023.109.063.234l.07.246q.039.141.09.3zm4.84 1.2h-.477v-1.326h.477a1.781 1.781 0 0 1 .434.045.8.8 0 0 1 .287.129.493.493 0 0 1 .162.205.691.691 0 0 1 .051.27.661.661 0 0 1-.055.271.554.554 0 0 1-.17.213.855.855 0 0 1-.289.141 1.512 1.512 0 0 1-.42.051zm-.039-2.262h-.437v-1.209h.434a1.47 1.47 0 0 1 .373.041.676.676 0 0 1 .25.117.458.458 0 0 1 .141.184.628.628 0 0 1 .045.244.639.639 0 0 1-.049.252.5.5 0 0 1-.148.2.752.752 0 0 1-.25.127 1.208 1.208 0 0 1-.357.047zm-1.766-1.559v4.172a.556.556 0 0 0 .609.605h1.141a4 4 0 0 0 1.068-.125 2.117 2.117 0 0 0 .734-.348 1.374 1.374 0 0 0 .424-.528 1.626 1.626 0 0 0 .137-.67 1.256 1.256 0 0 0-.074-.441 1.069 1.069 0 0 0-.211-.35 1.136 1.136 0 0 0-.328-.248 1.459 1.459 0 0 0-.422-.137v-.016a1.358 1.358 0 0 0 .359-.176 1.119 1.119 0 0 0 .266-.26 1.161 1.161 0 0 0 .168-.336 1.336 1.336 0 0 0 .059-.4 1.228 1.228 0 0 0-.115-.527 1.1 1.1 0 0 0-.371-.428 1.987 1.987 0 0 0-.656-.285 3.91 3.91 0 0 0-.967-.1h-1.212a.556.556 0 0 0-.609.605zm8.348 3.7h-1.54v-3.736a.576.576 0 0 0-.166-.443.935.935 0 0 0-1.029 0 .572.572 0 0 0-.168.443v4.207a.556.556 0 0 0 .609.605h2.293a.44.44 0 0 0 .34-.131.74.74 0 0 0 0-.814.438.438 0 0 0-.338-.133zm2.9.047v-1.2h1.387a.4.4 0 0 0 .311-.129.662.662 0 0 0 0-.758.4.4 0 0 0-.311-.129h-1.389v-1.107h1.637a.422.422 0 0 0 .326-.129.69.69 0 0 0 0-.775.426.426 0 0 0-.326-.127H94.3a.556.556 0 0 0-.609.605v4.172A.556.556 0 0 0 94.3 17h2.41a.421.421 0 0 0 .322-.127.69.69 0 0 0 0-.775.417.417 0 0 0-.322-.129zm5.836-3.781v4.24a.576.576 0 0 0 .166.443.939.939 0 0 0 1.031 0 .576.576 0 0 0 .166-.443v-4.242a.576.576 0 0 0-.166-.443.935.935 0 0 0-1.029 0 .572.572 0 0 0-.168.443zm2.938.313v4a.5.5 0 0 0 .15.389.645.645 0 0 0 .451.139.669.669 0 0 0 .461-.141.462.462 0 0 0 .145-.387l-.066-2.324q-.008-.187-.021-.361t-.029-.307l-.031-.293.016-.008.109.246q.047.113.119.254l.154.289 1.371 2.328a3.152 3.152 0 0 0 .193.3 1.027 1.027 0 0 0 .217.221.859.859 0 0 0 .277.135 1.369 1.369 0 0 0 .375.045.971.971 0 0 0 .705-.225.929.929 0 0 0 .229-.689v-4a.5.5 0 0 0-.15-.389.639.639 0 0 0-.447-.139.676.676 0 0 0-.463.141.459.459 0 0 0-.146.387l.07 2.324q0 .191.02.363l.027.3q.016.156.035.293l-.02.008-.109-.246-.119-.254q-.068-.141-.154-.289l-1.371-2.328a3.152 3.152 0 0 0-.193-.3 1.027 1.027 0 0 0-.217-.221.862.862 0 0 0-.275-.135 1.365 1.365 0 0 0-.377-.045.971.971 0 0 0-.705.225.923.923 0 0 0-.229.686z" class="cls-5"/>
                    <g id="Google-Play-Icon-Copy" transform="translate(16 15)">
                        <path id="Combined-Shape" d="M15.229 7.455L2.563.223A1.2 1.2 0 0 0 1.6.058l10.379 10.773zm.017 6.768l4.324-2.469a.959.959 0 0 0 0-1.821l-4.34-2.478-3.251 3.376zM1.6.058A1.086 1.086 0 0 0 .969 1.2v19.286a1.1 1.1 0 0 0 .616 1.138l10.394-10.791zm-.013 21.567a1.185 1.185 0 0 0 .976-.159l12.681-7.242-3.265-3.391z" class="cls-6"/>
                    </g>
                    <g id="Google-Play-Icon" transform="translate(16 15)">
                        <path id="Fill-1" d="M15.229 7.455L2.563.223A1.2 1.2 0 0 0 1.6.058l10.379 10.773 3.25-3.376" class="cls-7"/>
                        <path id="Fill-2" d="M15.246 14.224l4.324-2.469a.959.959 0 0 0 0-1.821l-4.34-2.479-3.251 3.376 3.267 3.392" class="cls-8"/>
                        <path id="Fill-3" d="M1.6.058A1.086 1.086 0 0 0 .969 1.2v19.286a1.1 1.1 0 0 0 .616 1.138l10.394-10.791L1.6.058" class="cls-9"/>
                        <path id="Fill-4" d="M1.587 21.625a1.185 1.185 0 0 0 .976-.159l12.681-7.242-3.265-3.391L1.587 21.625" class="cls-10"/>
                    </g>
                </g>
            </g>
        </g>
    </g>
</svg>
