<svg xmlns="http://www.w3.org/2000/svg" viewBox="831 5006.328 15.5 16.74">
  <defs>
    <style>
      .cls-1 {
        fill: #fff;
      }
    </style>
  </defs>
  <g id="opened-email-outlined-interface-symbol" transform="translate(809.875 5007.328)">
    <g id="Group_9137" data-name="Group 9137" transform="translate(21.125 -1)">
      <rect id="Rectangle_4505" data-name="Rectangle 4505" class="cls-1" width="8.06" height="0.62" transform="translate(3.72 6.2)"/>
      <rect id="Rectangle_4506" data-name="Rectangle 4506" class="cls-1" width="8.06" height="0.62" transform="translate(3.72 4.34)"/>
      <path id="Path_14655" data-name="Path 14655" class="cls-1" d="M32.765,5.208V3.1a1.244,1.244,0,0,0-1.24-1.24H28.983L26.875,0,24.767,1.86H22.225a1.244,1.244,0,0,0-1.24,1.24V5.208L19.125,6.82V15.5a1.244,1.244,0,0,0,1.24,1.24h13.02a1.244,1.244,0,0,0,1.24-1.24V6.82Zm0,.806.93.806-.93.806ZM26.875.806,28.053,1.86H25.635ZM21.6,3.1a.586.586,0,0,1,.62-.62h9.3a.667.667,0,0,1,.62.62V8.122l-1.984,1.8H23.589L21.6,8.184Zm6.51,8.68h-2.48l-1.364-1.24h5.146l-1.3,1.24Zm-7.13-5.766V7.688l-.93-.868Zm-1.054,9.92a.563.563,0,0,1-.186-.434V7.44l4.96,4.34Zm.744.186,4.34-3.72h3.72l4.34,3.72Zm13.33-4.65V15.5a.563.563,0,0,1-.186.434L29.045,11.78l4.96-4.34Z" transform="translate(-19.125)"/>
      <rect id="Rectangle_4507" data-name="Rectangle 4507" class="cls-1" width="8.06" height="0.62" transform="translate(3.72 8.06)"/>
    </g>
  </g>
</svg>
