<svg xmlns="http://www.w3.org/2000/svg" viewBox="2934.332 4299 17.618 17.618">
    <defs>
        <style>
            .cls-1{fill:#fff}
        </style>
    </defs>
    <g id="ig_icon" transform="translate(2934.332 4299)">
        <path id="Path_14666" d="M12.756 0H4.862A4.867 4.867 0 0 0 0 4.862v7.894a4.867 4.867 0 0 0 4.862 4.862h7.894a4.868 4.868 0 0 0 4.862-4.862V4.862A4.867 4.867 0 0 0 12.756 0zm3.3 12.756a3.3 3.3 0 0 1-3.3 3.3H4.862a3.3 3.3 0 0 1-3.3-3.3V4.862a3.3 3.3 0 0 1 3.3-3.3h7.894a3.3 3.3 0 0 1 3.3 3.3v7.894z" class="cls-1" data-name="Path 14666"/>
        <path id="Path_14667" d="M45.508 40.97a4.54 4.54 0 1 0 4.54 4.54 4.545 4.545 0 0 0-4.54-4.54zm0 7.516a2.976 2.976 0 1 1 2.977-2.976 2.98 2.98 0 0 1-2.977 2.976z" class="cls-1" data-name="Path 14667" transform="translate(-36.699 -36.7)"/>
        <path id="Path_14668" d="M120.067 28.251a1.146 1.146 0 1 0 .811.336 1.151 1.151 0 0 0-.811-.336z" class="cls-1" data-name="Path 14668" transform="translate(-106.528 -25.307)"/>
    </g>
</svg>
