<svg xmlns="http://www.w3.org/2000/svg" viewBox="2185.039 1180.031 100 100">
    <defs>
        <style>
            .cls-1{opacity:.344}.cls-2{fill:#fff}.cls-3{fill:#fdbf5e}.cls-4{fill:#f16051}.cls-5{fill:#4fbf9f}
        </style>
    </defs>
    <g id="kelola_toko" transform="translate(2185.039 1180.031)">
        <g id="Group_6187" data-name="Group 6187">
            <circle id="Ellipse_3" cx="50" cy="50" r="50" class="cls-1" data-name="Ellipse 3"/>
            <circle id="Ellipse_4" cx="45.906" cy="45.906" r="45.906" class="cls-2" data-name="Ellipse 4" transform="translate(4.094 4.094)"/>
        </g>
        <g id="Group_6188" data-name="Group 6188" transform="translate(19.007 18.206)">
            <g id="expand" transform="translate(1.46 2.214)">
                <g id="Group_8180" data-name="Group 8180">
                    <g id="Group_8179" data-name="Group 8179">
                        <path id="Path_14339" d="M20.661 299.153L2.536 317.278v-9.62a1.268 1.268 0 1 0-2.536 0v12.681a1.268 1.268 0 0 0 1.268 1.268h12.681a1.268 1.268 0 0 0 0-2.536h-9.62l18.125-18.125a1.268 1.268 0 0 0-1.793-1.793z" data-name="Path 14339" transform="translate(0 -263.275)"/>
                        <path id="Path_14340" d="M320.109 0h-12.681a1.268 1.268 0 1 0 0 2.536h9.62l-18.125 18.125a1.268 1.268 0 1 0 1.762 1.824l.031-.031 18.125-18.125v9.62a1.268 1.268 0 0 0 2.536 0V1.268A1.268 1.268 0 0 0 320.109 0z" data-name="Path 14340" transform="translate(-263.045)"/>
                        <path id="Path_14341" d="M4.329 2.536h9.62a1.268 1.268 0 1 0 0-2.536H1.268A1.268 1.268 0 0 0 0 1.268v12.681a1.268 1.268 0 0 0 2.536 0v-9.62l18.125 18.125a1.268 1.268 0 0 0 1.793-1.793z" data-name="Path 14341"/>
                        <path id="Path_14342" d="M320.339 306.39a1.268 1.268 0 0 0-1.268 1.268v9.62l-18.125-18.125a1.268 1.268 0 0 0-1.793 1.793l18.125 18.125h-9.62a1.268 1.268 0 0 0 0 2.536h12.681a1.268 1.268 0 0 0 1.268-1.268v-12.681a1.268 1.268 0 0 0-1.268-1.268z" data-name="Path 14342" transform="translate(-263.275 -263.275)"/>
                    </g>
                </g>
            </g>
            <g id="Group_9058" data-name="Group 9058">
                <g id="Group_8184" data-name="Group 8184" transform="translate(23.098 21.462)">
                    <g id="Group_8181" data-name="Group 8181">
                        <path id="Path_14343" d="M15.562 7.693A23.425 23.425 0 0 1 8.119.1a.3.3 0 0 0-.527 0A23.279 23.279 0 0 1 .149 7.693a.309.309 0 0 0 .161.571l1.538-.352 1.04 6.637a.728.728 0 0 0 .733.615h8.439a.741.741 0 0 0 .733-.615l1.055-6.637 1.524.352a.311.311 0 0 0 .19-.571z" data-name="Path 14343" transform="translate(-.003 .05)"/>
                    </g>
                    <g id="Group_8183" data-name="Group 8183" transform="translate(5.596 6.981)">
                        <g id="Group_8182" data-name="Group 8182">
                            <circle id="Ellipse_4602" cx="2.256" cy="2.256" r="2.256" class="cls-2" data-name="Ellipse 4602"/>
                        </g>
                    </g>
                </g>
                <g id="Group_8188" data-name="Group 8188" transform="translate(26.901)">
                    <g id="Group_8185" data-name="Group 8185">
                        <path id="Path_14344" d="M8.027 3.943A12.08 12.08 0 0 1 4.188.029a.156.156 0 0 0-.272 0A12 12 0 0 1 .078 3.943a.159.159 0 0 0 .083.295l.793-.181.536 3.423a.375.375 0 0 0 .378.317h4.353a.382.382 0 0 0 .379-.318l.544-3.423.786.181a.16.16 0 0 0 .097-.294z" data-name="Path 14344" transform="translate(-.003 .05)"/>
                    </g>
                    <g id="Group_8187" data-name="Group 8187" transform="translate(2.886 3.6)">
                        <g id="Group_8186" data-name="Group 8186">
                            <circle id="Ellipse_4603" cx="1.164" cy="1.164" r="1.164" class="cls-2" data-name="Ellipse 4603"/>
                        </g>
                    </g>
                </g>
                <g id="Group_8196" data-name="Group 8196" transform="translate(52.632 27.485)">
                    <g id="Group_8193" data-name="Group 8193">
                        <path id="Path_14346" d="M8.027 3.943A12.08 12.08 0 0 1 4.188.029a.156.156 0 0 0-.272 0A12 12 0 0 1 .078 3.943a.159.159 0 0 0 .083.295l.793-.181.536 3.423a.375.375 0 0 0 .378.317h4.353a.382.382 0 0 0 .379-.318l.544-3.423.786.181a.16.16 0 0 0 .097-.294z" class="cls-3" data-name="Path 14346" transform="translate(-.003 .05)"/>
                    </g>
                    <g id="Group_8195" data-name="Group 8195" transform="translate(2.886 3.6)">
                        <g id="Group_8194" data-name="Group 8194">
                            <circle id="Ellipse_4605" cx="1.164" cy="1.164" r="1.164" class="cls-2" data-name="Ellipse 4605"/>
                        </g>
                    </g>
                </g>
                <g id="Group_8200" data-name="Group 8200" transform="translate(0 27.485)">
                    <g id="Group_8197" data-name="Group 8197">
                        <path id="Path_14347" d="M8.027 3.943A12.08 12.08 0 0 1 4.188.029a.156.156 0 0 0-.272 0A12 12 0 0 1 .078 3.943a.159.159 0 0 0 .083.295l.793-.181.536 3.423a.375.375 0 0 0 .378.317h4.353a.382.382 0 0 0 .379-.318l.544-3.423.786.181a.16.16 0 0 0 .097-.294z" class="cls-4" data-name="Path 14347" transform="translate(-.003 .05)"/>
                    </g>
                    <g id="Group_8199" data-name="Group 8199" transform="translate(2.886 3.6)">
                        <g id="Group_8198" data-name="Group 8198">
                            <circle id="Ellipse_4606" cx="1.164" cy="1.164" r="1.164" class="cls-2" data-name="Ellipse 4606"/>
                        </g>
                    </g>
                </g>
                <g id="Group_8192" data-name="Group 8192" transform="translate(26.901 52.632)">
                    <g id="Group_8189" data-name="Group 8189">
                        <path id="Path_14345" d="M8.027 3.943A12.08 12.08 0 0 1 4.188.029a.156.156 0 0 0-.272 0A12 12 0 0 1 .078 3.943a.159.159 0 0 0 .083.295l.793-.181.536 3.423a.375.375 0 0 0 .378.317h4.353a.382.382 0 0 0 .379-.318l.544-3.423.786.181a.16.16 0 0 0 .097-.294z" class="cls-5" data-name="Path 14345" transform="translate(-.003 .05)"/>
                    </g>
                    <g id="Group_8191" data-name="Group 8191" transform="translate(2.886 3.6)">
                        <g id="Group_8190" data-name="Group 8190">
                            <circle id="Ellipse_4604" cx="1.164" cy="1.164" r="1.164" class="cls-2" data-name="Ellipse 4604"/>
                        </g>
                    </g>
                </g>
            </g>
        </g>
    </g>
</svg>
