<svg xmlns="http://www.w3.org/2000/svg" viewBox="2617.205 1180.174 100 100">
    <defs>
        <style>
            .cls-1{opacity:.344}.cls-2{fill:#fff}.cls-3{fill:#e1e6e9}.cls-4{fill:#193651}
        </style>
    </defs>
    <g id="kelola_produk" transform="translate(2617.205 1180.174)">
        <g id="Group_9072" data-name="Group 9072">
            <circle id="Ellipse_3335" cx="50" cy="50" r="50" class="cls-1" data-name="Ellipse 3335"/>
            <circle id="Ellipse_3336" cx="45.906" cy="45.906" r="45.906" class="cls-2" data-name="Ellipse 3336" transform="translate(4.094 4.094)"/>
        </g>
        <g id="Group_9073" data-name="Group 9073" transform="translate(8.88 9.406)">
            <g id="networking_3_" data-name="networking (3)">
                <circle id="Ellipse_4607" cx="40.227" cy="40.227" r="40.227" class="cls-3" data-name="Ellipse 4607" transform="translate(.506 .506)"/>
                <g id="Group_8201" data-name="Group 8201" transform="translate(1.278 1.278)">
                    <circle id="Ellipse_4608" cx="4.965" cy="4.965" r="4.965" class="cls-2" data-name="Ellipse 4608" transform="translate(68.98 34.49)"/>
                    <circle id="Ellipse_4609" cx="4.965" cy="4.965" r="4.965" class="cls-2" data-name="Ellipse 4609" transform="translate(0 34.49)"/>
                    <circle id="Ellipse_4610" cx="4.965" cy="4.965" r="4.965" class="cls-2" data-name="Ellipse 4610" transform="translate(34.49 69.246)"/>
                    <circle id="Ellipse_4611" cx="4.965" cy="4.965" r="4.965" class="cls-2" data-name="Ellipse 4611" transform="translate(34.49)"/>
                    <circle id="Ellipse_4612" cx="4.965" cy="4.965" r="4.965" class="cls-2" data-name="Ellipse 4612" transform="translate(58.93 58.93)"/>
                    <circle id="Ellipse_4613" cx="4.965" cy="4.965" r="4.965" class="cls-2" data-name="Ellipse 4613" transform="translate(10.05 10.05)"/>
                    <circle id="Ellipse_4614" cx="4.965" cy="4.965" r="4.965" class="cls-2" data-name="Ellipse 4614" transform="translate(9.984 59.129)"/>
                    <circle id="Ellipse_4615" cx="4.965" cy="4.965" r="4.965" class="cls-2" data-name="Ellipse 4615" transform="translate(58.93 10.05)"/>
                    <circle id="Ellipse_4616" cx="15.907" cy="15.907" r="15.907" class="cls-2" data-name="Ellipse 4616" transform="translate(23.548 23.548)"/>
                </g>
                <g id="Group_8202" data-name="Group 8202" transform="translate(14.123 14.137)">
                    <path id="Path_14348" d="M132.191 148.729a17.271 17.271 0 0 1-17.185-17.185 16.621 16.621 0 0 1 5.1-12.087 17.147 17.147 0 1 1 12.087 29.272zm0-31.814a14.176 14.176 0 0 0-10.316 4.326 14.581 14.581 0 0 0-4.326 10.316 14.642 14.642 0 1 0 14.642-14.642z" class="cls-4" data-name="Path 14348" transform="translate(-105.581 -104.948)"/>
                    <path id="Rectangle_4459" d="M0 0h2.542v2.542H0z" class="cls-4" data-name="Rectangle 4459" transform="translate(25.332)"/>
                    <path id="Rectangle_4460" d="M0 0h2.542v2.542H0z" class="cls-4" data-name="Rectangle 4460" transform="translate(25.332 5.085)"/>
                    <path id="Rectangle_4461" d="M0 0h2.542v2.542H0z" class="cls-4" data-name="Rectangle 4461" transform="translate(25.332 45.565)"/>
                    <path id="Rectangle_4462" d="M0 0h2.542v2.542H0z" class="cls-4" data-name="Rectangle 4462" transform="translate(25.332 50.663)"/>
                    <path id="Rectangle_4463" d="M0 0h2.542v2.542H0z" class="cls-4" data-name="Rectangle 4463" transform="translate(50.663 25.332)"/>
                    <path id="Rectangle_4464" d="M0 0h2.542v2.542H0z" class="cls-4" data-name="Rectangle 4464" transform="translate(45.578 25.332)"/>
                    <path id="Rectangle_4465" d="M0 0h2.542v2.542H0z" class="cls-4" data-name="Rectangle 4465" transform="translate(5.098 25.332)"/>
                    <path id="Rectangle_4466" d="M0 0h2.542v2.542H0z" class="cls-4" data-name="Rectangle 4466" transform="translate(0 25.332)"/>
                    <path id="Rectangle_4467" d="M0 0h2.542v2.542H0z" class="cls-4" data-name="Rectangle 4467" transform="rotate(-135 24.45 -3.915)"/>
                    <path id="Rectangle_4468" d="M0 0h2.542v2.542H0z" class="cls-4" data-name="Rectangle 4468" transform="rotate(-135 23.352 -1.405)"/>
                    <path id="Rectangle_4469" d="M0 0h2.542v2.542H0z" class="cls-4" data-name="Rectangle 4469" transform="rotate(45 -41.004 34.5)"/>
                    <path id="Rectangle_4470" d="M0 0h2.542v2.542H0z" class="cls-4" data-name="Rectangle 4470" transform="rotate(45 -47.223 31.795)"/>
                    <path id="Rectangle_4471" d="M0 0h2.543v2.543H0z" class="cls-4" data-name="Rectangle 4471" transform="rotate(45 -29.378 75.135)"/>
                    <path id="Rectangle_4472" d="M0 0h2.543v2.543H0z" class="cls-4" data-name="Rectangle 4472" transform="rotate(135 12.895 29.27)"/>
                    <path id="Rectangle_4473" d="M0 0h2.543v2.543H0z" class="cls-4" data-name="Rectangle 4473" transform="rotate(-135 9.1 4.526)"/>
                    <path id="Rectangle_4474" d="M0 0h2.542v2.542H0z" class="cls-4" data-name="Rectangle 4474" transform="rotate(-135 6.496 3.471)"/>
                </g>
                <g id="Group_8204" data-name="Group 8204">
                    <path id="Path_14350" d="M6.89 179.985a6.243 6.243 0 1 1 6.243-6.243 6.243 6.243 0 0 1-6.243 6.243zm0-9.93a3.687 3.687 0 1 0 3.687 3.687 3.775 3.775 0 0 0-3.687-3.687z" class="cls-4" data-name="Path 14350" transform="translate(-.647 -133.009)"/>
                    <path id="Path_14351" d="M341.888 179.985a6.243 6.243 0 1 1 6.243-6.243 6.252 6.252 0 0 1-6.243 6.243zm0-9.93a3.687 3.687 0 1 0 3.687 3.687 3.687 3.687 0 0 0-3.687-3.687z" class="cls-4" data-name="Path 14351" transform="translate(-266.665 -133.009)"/>
                    <path id="Path_14352" d="M51.757 59.9a6.212 6.212 0 1 1 8.786 0 6.218 6.218 0 0 1-8.786 0zm7-7a3.77 3.77 0 0 0-5.218 0 3.647 3.647 0 0 0 0 5.218 3.69 3.69 0 1 0 5.218-5.218z" class="cls-4" data-name="Path 14352" transform="translate(-39.79 -39.143)"/>
                    <path id="Path_14353" d="M288.492 296.7a6.212 6.212 0 1 1 8.786 0 6.218 6.218 0 0 1-8.786 0zm7-6.882a3.69 3.69 0 1 0 0 5.218 3.648 3.648 0 0 0 .001-5.223z" class="cls-4" data-name="Path 14353" transform="translate(-227.778 -227.183)"/>
                    <path id="Path_14354" d="M168.145 6.243a6.243 6.243 0 1 1 6.243 6.243 6.252 6.252 0 0 1-6.243-6.243zm9.93 0a3.687 3.687 0 1 0-3.687 3.687 3.687 3.687 0 0 0 3.687-3.687z" class="cls-4" data-name="Path 14354" transform="translate(-133.655)"/>
                    <path id="Path_14355" d="M168.145 342.534a6.243 6.243 0 1 1 6.243 6.243 6.252 6.252 0 0 1-6.243-6.243zm9.93 0a3.687 3.687 0 1 0-3.687 3.687 3.687 3.687 0 0 0 3.687-3.687z" class="cls-4" data-name="Path 14355" transform="translate(-133.655 -267.045)"/>
                    <path id="Path_14356" d="M289.138 51.11a6.212 6.212 0 1 1 0 8.786 6.218 6.218 0 0 1 0-8.786zm7 7a3.69 3.69 0 1 0-5.218 0 3.771 3.771 0 0 0 5.22.001z" class="cls-4" data-name="Path 14356" transform="translate(-228.292 -39.143)"/>
                    <path id="Path_14357" d="M51.148 289.138a6.212 6.212 0 1 1 0 8.786 6.218 6.218 0 0 1 0-8.786zm7 7a3.69 3.69 0 1 0-5.218 0 3.771 3.771 0 0 0 5.22.001z" class="cls-4" data-name="Path 14357" transform="translate(-39.315 -228.158)"/>
                </g>
            </g>
            <path id="box" d="M19.057 10.109l-2.1-2.453 2.1-2.453a.3.3 0 0 0-.082-.456L12.168.966a.3.3 0 0 0-.356.049l-2.067 2.05L7.7 1.016a.3.3 0 0 0-.365-.048L.149 5.129a.3.3 0 0 0-.049.485L2.539 7.7l-2.1 2.8a.3.3 0 0 0 .094.44l2.094 1.163a.292.292 0 0 0-.018.089v2.768a1.031 1.031 0 0 0 .513.889L9.2 19.361a1.063 1.063 0 0 0 .531.142h.019a1.063 1.063 0 0 0 .512-.14l6.064-3.5a1.068 1.068 0 0 0 .532-.921v-3.08l2.126-1.3a.3.3 0 0 0 .071-.45zm-9.612.816L3.54 7.644l5.905-3.609zm.6-6.9l5.925 3.621-5.925 3.292zM12.074 1.6l6.291 3.495L16.5 7.269l-6.277-3.836zm-4.638 0l1.838 1.839-6.3 3.849L.813 5.435zM3.029 8.044L9.3 11.526l-1.9 2.549-6.278-3.488zm.391 7.288a.432.432 0 0 1-.215-.372v-2.532l4.134 2.3a.3.3 0 0 0 .385-.083l1.72-2.314v6.479zm12.842-.393a.468.468 0 0 1-.233.4L10.043 18.8v-6.478l1.741 2.321a.3.3 0 0 0 .395.076l4.084-2.5zm-4.162-.872l-1.9-2.534 6.295-3.5 1.882 2.2z" class="cls-4" transform="translate(30.78 30.817)"/>
        </g>
    </g>
</svg>
