<svg xmlns="http://www.w3.org/2000/svg" viewBox="2190.535 3270.673 51.89 66.453">
    <defs>
        <style>
            .cls-1{opacity:.34}.cls-2{fill:#63add7}
        </style>
    </defs>
    <g id="kepuasan_icon" transform="translate(-1805.69 294.673)">
        <g id="like_1_" class="cls-1" data-name="like (1)" transform="translate(3996.225 2996.547)">
            <g id="Group_9199" data-name="Group 9199" transform="translate(4.765 39.288)">
                <g id="Group_9198" data-name="Group 9198">
                    <path id="Path_14732" d="M52.8 433.868a.918.918 0 0 0-.918.918v.017a.918.918 0 1 0 1.837 0v-.017a.918.918 0 0 0-.919-.918z" data-name="Path 14732" transform="translate(-51.882 -433.868)"/>
                </g>
            </g>
            <g id="Group_9201" data-name="Group 9201" transform="translate(4.765 25.437)">
                <g id="Group_9200" data-name="Group 9200">
                    <path id="Path_14733" d="M52.8 283.052a.918.918 0 0 0-.918.918v9.671a.918.918 0 0 0 1.837 0v-9.671a.918.918 0 0 0-.919-.918z" data-name="Path 14733" transform="translate(-51.882 -283.052)"/>
                </g>
            </g>
            <g id="Group_9203" data-name="Group 9203" transform="translate(17.052 10.571)">
                <g id="Group_9202" data-name="Group 9202">
                    <path id="Path_14734" d="M187.248 121.438a.918.918 0 1 0 .269.649.925.925 0 0 0-.269-.649z" data-name="Path 14734" transform="translate(-185.68 -121.169)"/>
                </g>
            </g>
            <g id="Group_9205" data-name="Group 9205">
                <g id="Group_9204" data-name="Group 9204">
                    <path id="Path_14735" d="M45.361 37.462a4.313 4.313 0 0 0-2.527-7.711 4.313 4.313 0 0 0-3.527-6.8H26.32l3.821-7.888a5.951 5.951 0 0 0-.833-6.463l-1.894-2.213a.918.918 0 0 0-1.405.012l-6.441 7.785a.918.918 0 0 0 1.415 1.171l5.745-6.945 1.184 1.384a4.114 4.114 0 0 1 .577 4.469l-4.633 9.563a.919.919 0 0 0-.092.4v2a6.128 6.128 0 0 1-6.121 6.121h-1.01a.918.918 0 0 0 0 1.837h1.01a7.967 7.967 0 0 0 7.957-7.958v-1.438h2a4.306 4.306 0 0 0 .873 5.878 4.309 4.309 0 0 0 0 6.8 4.309 4.309 0 0 0 0 6.8 4.306 4.306 0 0 0-.873 5.878h-9.391a13.4 13.4 0 0 1-4.914-.929l-1.906-.748V26.951l4.907-5.93a.918.918 0 0 0-1.415-1.171l-3.505 4.236a.918.918 0 0 0-.9-.767H.918a.918.918 0 0 0-.918.918v26.816a.918.918 0 0 0 .918.918h9.552a.918.918 0 0 0 .918-.918v-.622l1.235.485a15.234 15.234 0 0 0 5.585 1.056h21.1a4.313 4.313 0 0 0 3.527-6.8 4.313 4.313 0 0 0 2.528-7.711zM9.552 50.135H1.837V25.156h7.715zM31.13 24.788h8.176a2.48 2.48 0 0 1 0 4.959H31.13a2.48 2.48 0 0 1 0-4.959zm8.176 25.346H31.13a2.48 2.48 0 0 1 0-4.959h8.176a2.48 2.48 0 1 1 0 4.959zm3.4-6.8H31.13a2.48 2.48 0 0 1 0-4.959H42.7a2.48 2.48 0 0 1 0 4.959zm0-6.8H31.13a2.48 2.48 0 0 1 0-4.959H42.7a2.48 2.48 0 0 1 0 4.959z" data-name="Path 14735" transform="translate(0 -6.065)"/>
                </g>
            </g>
        </g>
        <path id="Path_14742" d="M249.358 13.235V1.479a1.479 1.479 0 1 0-2.958 0V13.25a1.473 1.473 0 0 0 1.479 1.479 1.5 1.5 0 0 0 1.479-1.494z" class="cls-2" data-name="Path 14742" transform="translate(3774.304 2976)"/>
        <path id="Path_14743" d="M125.978 56.457a1.5 1.5 0 0 0 1.046-.433 1.47 1.47 0 0 0 0-2.091l-8.32-8.32a1.479 1.479 0 0 0-2.091 2.091l8.32 8.32a1.5 1.5 0 0 0 1.045.433z" class="cls-2" data-name="Path 14743" transform="translate(3885.077 2937.573)"/>
        <path id="Path_14744" d="M344.55 177h-11.771a1.479 1.479 0 1 0 0 2.958h11.771a1.479 1.479 0 1 0 0-2.958z" class="cls-2" data-name="Path 14744" transform="translate(3702.087 2825.44)"/>
        <path id="Path_14745" d="M82.6 178.479a1.473 1.473 0 0 0 1.479 1.479H95.85a1.479 1.479 0 1 0 0-2.958H84.079a1.492 1.492 0 0 0-1.479 1.479z" class="cls-2" data-name="Path 14745" transform="translate(3913.637 2825.44)"/>
        <path id="Path_14746" d="M315 61.724l8.32-8.32a1.479 1.479 0 1 0-2.091-2.091l-8.32 8.32a1.47 1.47 0 0 0 0 2.091 1.479 1.479 0 0 0 2.091 0z" class="cls-2" data-name="Path 14746" transform="translate(3718.1 2932.724)"/>
    </g>
</svg>
