<svg xmlns="http://www.w3.org/2000/svg" viewBox="2055.325 4503.952 123.897 33.191">
    <defs>
        <style>
            .cls-1,.cls-4{fill:#4ea8e4}.cls-2{fill:none;stroke:#4ea8e4}.cls-2,.cls-3,.cls-4,.cls-5{stroke-miterlimit:10}.cls-3{fill:#127fb5}.cls-3,.cls-4,.cls-5{stroke:#fff}.cls-5{fill:#096289}
        </style>
    </defs>
    <g id="logo-stoksis-06" transform="translate(1975.225 4165.497)">
        <path id="Path_14719" d="M80.1 488.115a1.778 1.778 0 0 1 .431-1.007l.888-1.152a6.452 6.452 0 0 1 .611-.783.678.678 0 0 1 .493-.229 1.3 1.3 0 0 1 .528.145 9.813 9.813 0 0 1 .866.479c.048.031.457.312 1.227.84a4.5 4.5 0 0 0 2.881.695 1.365 1.365 0 0 0 .9-.325.974.974 0 0 0 .33-.734 1.38 1.38 0 0 0-.576-1.056 2.8 2.8 0 0 0-1.636-.545h.022a11.729 11.729 0 0 1-3.29-1.091 4.154 4.154 0 0 1-1.68-1.574 5.5 5.5 0 0 1-.6-2.26 4.966 4.966 0 0 1 .673-2.894 5.424 5.424 0 0 1 2.208-2.067 7.022 7.022 0 0 1 3.316-.756 9.971 9.971 0 0 1 2.788.409 9.722 9.722 0 0 1 2.1.827 4.925 4.925 0 0 1 1.5 1.187.93.93 0 0 1 .334.624.972.972 0 0 1-.18.519 6.936 6.936 0 0 1-.611.756l-.695.743a4.275 4.275 0 0 1-.515.493.6.6 0 0 1-.347.132.95.95 0 0 1-.431-.145c-.176-.1-.347-.2-.515-.3s-.317-.2-.444-.277a5.625 5.625 0 0 0-2.907-1.055 1.813 1.813 0 0 0-1.214.374 1.14 1.14 0 0 0-.444.9 1.306 1.306 0 0 0 .431.95 2.148 2.148 0 0 0 1.227.541 9.853 9.853 0 0 1 5.128 2.041 4.536 4.536 0 0 1 1.693 3.461 4.879 4.879 0 0 1-.9 2.775 6.658 6.658 0 0 1-2.5 2.164 7.665 7.665 0 0 1-3.567.827 11.259 11.259 0 0 1-6.46-2.256c-.711-.491-1.063-.941-1.063-1.376z" class="cls-1" data-name="Path 14719" transform="translate(0 -128.896)"/>
        <path id="Path_14720" d="M462.344 486.9a1.022 1.022 0 0 1 .721.3.926.926 0 0 1 .312.686v2.788a1.068 1.068 0 0 1-1.034 1.033h-3.8v10.854a1.122 1.122 0 0 1-.277.77.879.879 0 0 1-.686.312h-3.193a.9.9 0 0 1-.686-.3 1.069 1.069 0 0 1-.277-.756l.167-10.88h-3.844a1.048 1.048 0 0 1-1.055-1.034v-2.788a.922.922 0 0 1 .3-.695 1.039 1.039 0 0 1 .756-.286h12.591z" class="cls-1" data-name="Path 14720" transform="translate(-352.387 -141.419)"/>
        <path id="Path_14721" d="M1593.659 507.389a1.039 1.039 0 0 1-.18.611.631.631 0 0 1-.471.277l-4.323.022a.738.738 0 0 1-.6-.312l-3.219-4.613-3.386 4.587a.686.686 0 0 1-.325.334 1.006 1.006 0 0 1-.493.119h-3.435a.941.941 0 0 1-.686-.251.91.91 0 0 1-.251-.686v-14.64a.9.9 0 0 1 .871-.937h3.5a.946.946 0 0 1 .937.937v6.363l5.308-6.751a1.569 1.569 0 0 1 1.442-.479l3.7.022h-.022a.545.545 0 0 1 .528.6 1.348 1.348 0 0 1-.29.77l-4.081 5.55 5.335 7.947a.976.976 0 0 1 .141.53z" class="cls-1" data-name="Path 14721" transform="translate(-1430.387 -146.2)"/>
        <path id="Path_14722" d="M2000.8 488.019a1.778 1.778 0 0 1 .431-1.007l.888-1.152a6.467 6.467 0 0 1 .611-.783.679.679 0 0 1 .492-.229 1.294 1.294 0 0 1 .528.145 9.806 9.806 0 0 1 .866.479c.048.031.457.312 1.227.84a4.5 4.5 0 0 0 2.881.695 1.364 1.364 0 0 0 .9-.325.955.955 0 0 0 .325-.734 1.38 1.38 0 0 0-.576-1.055 2.784 2.784 0 0 0-1.632-.554h.027a11.732 11.732 0 0 1-3.29-1.091 4.154 4.154 0 0 1-1.68-1.574 5.411 5.411 0 0 1-.6-2.256 4.968 4.968 0 0 1 .673-2.894 5.425 5.425 0 0 1 2.208-2.067 7.022 7.022 0 0 1 3.316-.756 9.97 9.97 0 0 1 2.788.409 9.72 9.72 0 0 1 2.1.827 4.92 4.92 0 0 1 1.5 1.187.931.931 0 0 1 .334.625.973.973 0 0 1-.18.519 6.928 6.928 0 0 1-.616.761l-.695.743a4.27 4.27 0 0 1-.515.493.6.6 0 0 1-.347.132.949.949 0 0 1-.431-.145c-.176-.1-.347-.2-.515-.3s-.317-.2-.444-.277a5.626 5.626 0 0 0-2.907-1.055 1.813 1.813 0 0 0-1.214.374 1.138 1.138 0 0 0-.444.9 1.306 1.306 0 0 0 .431.95 2.161 2.161 0 0 0 1.227.541 9.854 9.854 0 0 1 5.128 2.041 4.537 4.537 0 0 1 1.693 3.461 4.879 4.879 0 0 1-.9 2.775 6.658 6.658 0 0 1-2.5 2.164 7.6 7.6 0 0 1-3.567.827 11.26 11.26 0 0 1-6.46-2.256c-.709-.489-1.061-.942-1.061-1.378z" class="cls-1" data-name="Path 14722" transform="translate(-1836.23 -128.8)"/>
        <path id="Path_14723" d="M2391.3 500.959v-14.653a1.146 1.146 0 0 1 .29-.783.984.984 0 0 1 .77-.325h3.29a.961.961 0 0 1 .734.325 1.1 1.1 0 0 1 .3.783v14.649a1.089 1.089 0 0 1-.3.8.982.982 0 0 1-.734.3h-3.29a1.027 1.027 0 0 1-.77-.3 1.1 1.1 0 0 1-.29-.796z" class="cls-1" data-name="Path 14723" transform="translate(-2209.553 -139.792)"/>
        <path id="Path_14724" d="M2567.7 488.019a1.779 1.779 0 0 1 .431-1.007l.889-1.152a6.421 6.421 0 0 1 .611-.783.686.686 0 0 1 .492-.229 1.293 1.293 0 0 1 .528.145 9.806 9.806 0 0 1 .866.479c.048.031.457.312 1.227.84a4.5 4.5 0 0 0 2.881.695 1.365 1.365 0 0 0 .9-.325.955.955 0 0 0 .325-.734 1.379 1.379 0 0 0-.576-1.055 2.784 2.784 0 0 0-1.632-.554h.026a11.679 11.679 0 0 1-3.289-1.091 4.153 4.153 0 0 1-1.68-1.574 5.412 5.412 0 0 1-.6-2.256 4.964 4.964 0 0 1 .673-2.894 5.425 5.425 0 0 1 2.208-2.067 7.01 7.01 0 0 1 3.316-.756 9.974 9.974 0 0 1 2.789.409 9.718 9.718 0 0 1 2.1.827 4.923 4.923 0 0 1 1.5 1.187.93.93 0 0 1 .334.625.97.97 0 0 1-.181.519 6.911 6.911 0 0 1-.611.756l-.7.743a3.921 3.921 0 0 1-.519.493.585.585 0 0 1-.347.132.95.95 0 0 1-.431-.145c-.176-.1-.347-.2-.514-.3s-.317-.2-.444-.277a5.625 5.625 0 0 0-2.907-1.055 1.814 1.814 0 0 0-1.214.374 1.146 1.146 0 0 0-.444.9 1.305 1.305 0 0 0 .431.95 2.146 2.146 0 0 0 1.227.541 9.854 9.854 0 0 1 5.128 2.041 4.537 4.537 0 0 1 1.693 3.461 4.879 4.879 0 0 1-.9 2.775 6.659 6.659 0 0 1-2.5 2.164 7.614 7.614 0 0 1-3.567.827 11.259 11.259 0 0 1-6.46-2.256c-.707-.484-1.059-.937-1.059-1.373z" class="cls-1" data-name="Path 14724" transform="translate(-2378.198 -128.8)"/>
        <path id="Path_14725" d="M845.2 350.287v12.129a1.462 1.462 0 0 0 .73 1.267l12.556 7.248a1.461 1.461 0 0 0 1.451 0l12.82-7.257a1.471 1.471 0 0 0 .743-1.271v-12.956a1.46 1.46 0 0 0-2.19-1.267l-11.074 6.395a1.464 1.464 0 0 1-1.447.009l-11.355-6.408a1.46 1.46 0 0 1-.013-2.538l11.2-6.469a1.467 1.467 0 0 1 1.46 0l10.26 5.928" class="cls-2" data-name="Path 14725" transform="translate(-731.452)"/>
        <path id="Path_14726" d="M825.2 577.08a.88.88 0 1 1 .88.88.882.882 0 0 1-.88-.88z" class="cls-1" data-name="Path 14726" transform="translate(-712.331 -226.792)"/>
        <path id="Path_14727" d="M1403.443 456.35l-.906 1.57a.181.181 0 0 0 .066.251.176.176 0 0 0 .141.018l1.236-.33a.186.186 0 0 0 .132-.224l-.33-1.236a.184.184 0 0 0-.224-.132.16.16 0 0 0-.115.083z" class="cls-1" data-name="Path 14727" transform="translate(-1264.253 -112.128)"/>
        <path id="Path_14728" d="M954.342 381.985l-8.29 4.6a1.461 1.461 0 0 0 0 2.555l8.286 4.6a1.45 1.45 0 0 0 1.416 0l8.286-4.6a1.461 1.461 0 0 0 0-2.555l-8.281-4.6a1.45 1.45 0 0 0-1.417 0z" class="cls-3" data-name="Path 14728" transform="translate(-827.15 -40.942)"/>
        <path id="Path_14729" d="M906.554 633.714l-9.1-4.926a1.463 1.463 0 0 0-2.155 1.289v8.079a1.457 1.457 0 0 0 .73 1.267l10.493 6.051a1.418 1.418 0 0 0 .73.193V633.89a1.486 1.486 0 0 1-.698-.176z" class="cls-4" data-name="Path 14729" transform="translate(-779.348 -276.9)"/>
        <path id="Path_14730" d="M1167.6 633.714l9.1-4.926a1.463 1.463 0 0 1 2.155 1.284v8.079a1.457 1.457 0 0 1-.73 1.267l-10.493 6.051a1.419 1.419 0 0 1-.73.194V633.89a1.436 1.436 0 0 0 .698-.176z" class="cls-5" data-name="Path 14730" transform="translate(-1039.004 -276.9)"/>
    </g>
</svg>
