<svg xmlns="http://www.w3.org/2000/svg" xmlns:xlink="http://www.w3.org/1999/xlink" viewBox="3059.406 812.881 202.594 320.716">
    <defs>
        <style>
            .cls-1{fill:#79b9dd}.cls-2{fill:#63add7}.cls-3,.cls-34{fill:#fff}.cls-10,.cls-11,.cls-12,.cls-13,.cls-14,.cls-15,.cls-16,.cls-17,.cls-18,.cls-19,.cls-21,.cls-22,.cls-23,.cls-24,.cls-25,.cls-27,.cls-28,.cls-29,.cls-3,.cls-30,.cls-31,.cls-32,.cls-33,.cls-35,.cls-36,.cls-37,.cls-38,.cls-39,.cls-4,.cls-40,.cls-41,.cls-42,.cls-5,.cls-6,.cls-7,.cls-8,.cls-9{fill-rule:evenodd}.cls-4{fill:#f9e0dd}.cls-5{fill:#e2b9b4}.cls-6{fill:#e5e6e5}.cls-7{fill:#b3b2b3}.cls-8{fill:#cbcaca}.cls-9{fill:#121111}.cls-10{fill:#cea5a4}.cls-11{fill:#212121}.cls-12{fill:#dbdbdb}.cls-13{fill:#fefad1}.cls-14{fill:#ebaf3f}.cls-15{fill:#48a4db}.cls-15,.cls-18,.cls-19,.cls-20,.cls-21,.cls-22,.cls-26,.cls-30{stroke:#006dad}.cls-15,.cls-18,.cls-19,.cls-20,.cls-21,.cls-22,.cls-26,.cls-30,.cls-35,.cls-36{stroke-miterlimit:2.613}.cls-15,.cls-20,.cls-21,.cls-22,.cls-26,.cls-30{stroke-width:.216px}.cls-16,.cls-19{fill:#238fcf}.cls-17{fill:#006dad}.cls-18,.cls-20,.cls-21,.cls-22,.cls-26,.cls-30,.cls-36{fill:none}.cls-18,.cls-19,.cls-35,.cls-36{stroke-width:.5px}.cls-21{stroke-dasharray:.432 .648}.cls-23{fill:url(#linear-gradient)}.cls-24{fill:url(#linear-gradient-2)}.cls-25{fill:url(#linear-gradient-3)}.cls-26,.cls-30{stroke-dasharray:.432 .216}.cls-27{fill:url(#linear-gradient-4)}.cls-28{fill:url(#linear-gradient-5)}.cls-29{fill:url(#linear-gradient-6)}.cls-31{fill:#dbd59e}.cls-32{fill:#fbcbc5}.cls-33{fill:#1e1e1e}.cls-35,.cls-41{fill:#fee000}.cls-35{stroke:#fee000}.cls-36{stroke:#e3ca20}.cls-37{fill:url(#linear-gradient-7)}.cls-38{fill:url(#linear-gradient-8)}.cls-39{fill:url(#linear-gradient-9)}.cls-40{fill:#000002}.cls-42{fill:#e56b6b}
        </style>
        <linearGradient id="linear-gradient" x1=".103" x2=".871" y1=".621" y2=".37" gradientUnits="objectBoundingBox">
            <stop offset="0" stop-color="#242424"/>
            <stop offset="1" stop-color="#939191"/>
        </linearGradient>
        <linearGradient id="linear-gradient-2" x1=".198" x2=".719" y1=".519" y2=".41" xlink:href="#linear-gradient"/>
        <linearGradient id="linear-gradient-3" x1=".2" x2=".694" y1=".547" y2=".439" xlink:href="#linear-gradient"/>
        <linearGradient id="linear-gradient-4" x1=".896" x2=".134" y1=".621" y2=".37" xlink:href="#linear-gradient"/>
        <linearGradient id="linear-gradient-5" x1=".798" x2=".305" y1=".519" y2=".41" xlink:href="#linear-gradient"/>
        <linearGradient id="linear-gradient-6" x1=".743" x2=".222" y1=".547" y2=".439" xlink:href="#linear-gradient"/>
        <linearGradient id="linear-gradient-7" x1=".5" x2=".499" y1="1.05" y2=".038" gradientUnits="objectBoundingBox">
            <stop offset="0" stop-color="#b3b2b3"/>
            <stop offset="1" stop-color="#fff"/>
        </linearGradient>
        <linearGradient id="linear-gradient-8" x1=".498" x2=".499" y1=".998" y2="-.014" xlink:href="#linear-gradient-7"/>
        <linearGradient id="linear-gradient-9" x1=".5" x2=".499" y1="1.018" y2=".006" xlink:href="#linear-gradient-7"/>
    </defs>
    <g id="maskot_cewek" transform="translate(1966)">
        <g id="Group_9182" data-name="Group 9182" transform="translate(1144.059 1092.932)">
            <rect id="Rectangle_4487" width="91.417" height="14.185" class="cls-1" data-name="Rectangle 4487" rx="7.093" transform="translate(32.153)"/>
            <rect id="Rectangle_4488" width="91.417" height="14.185" class="cls-1" data-name="Rectangle 4488" rx="7.093" transform="translate(0 9.142)"/>
            <rect id="Rectangle_4489" width="91.417" height="14.185" class="cls-1" data-name="Rectangle 4489" rx="7.093" transform="translate(60.524 19.229)"/>
            <rect id="Rectangle_4490" width="91.417" height="14.185" class="cls-1" data-name="Rectangle 4490" rx="7.093" transform="translate(14.816 26.479)"/>
            <path id="Path_14492" d="M331.857 160.3h-2.208a3.051 3.051 0 0 1-3.049-3.049 3.051 3.051 0 0 1 3.049-3.049h2.208a3.051 3.051 0 0 1 3.049 3.049 3.086 3.086 0 0 1-3.049 3.049z" class="cls-2" data-name="Path 14492" transform="translate(-184.541 -145.557)"/>
            <path id="Path_14493" d="M331.857 160.3h-2.208a3.051 3.051 0 0 1-3.049-3.049 3.051 3.051 0 0 1 3.049-3.049h2.208a3.051 3.051 0 0 1 3.049 3.049 3.086 3.086 0 0 1-3.049 3.049z" class="cls-2" data-name="Path 14493" transform="translate(-322.612 -127.904)"/>
        </g>
        <g id="Group_9183" data-name="Group 9183" transform="translate(1093.406 813.113)">
            <g id="Group_9095" data-name="Group 9095">
                <path id="Path_14362" d="M152.668 329.4c1.505 1.326.885 2.828.974 4.507.177 4.242 4.427 9.81-.708 13.08-2.39 1.326-7.437 2.563-10-.442-1.416-1.768-1.594-4.154-.974-7.07.708-2.828 2.036-3.8 1.948-6.1a4.926 4.926 0 0 1 1.151-3.447z" class="cls-3" data-name="Path 14362" transform="translate(-19.367 -38.524)"/>
                <path id="Path_14363" d="M141.3 258.773s13.811-3.889 17.706 0c-.354 10.075-1.328 17.587-2.922 30.313 1.505 8.484-1.239 15.908-3.453 31.9.177 7.954-8.765 8.484-7.525-.53.708-4.6-1.771-17.94 0-31.02z" class="cls-4" data-name="Path 14363" transform="translate(-19.33 -30.114)"/>
                <path id="Path_14364" d="M142.8 267.439l-.8-8.749s13.191-3.712 17.087.177l-1.239 16.261c-3.187.619-8.056.972-12.749 1.326-.354 1.061-.8 2.3-1.151 3.535l-.354-3.535-.531-7.07z" class="cls-5" data-name="Path 14364" transform="translate(-19.41 -30.119)"/>
                <path id="Path_14365" d="M151.423 336.4l.8-3.8-6.02.177.708 3.535z" class="cls-3" data-name="Path 14365" transform="translate(-19.892 -38.896)"/>
                <path id="Path_14366" d="M151.792 335.7l-.354 1.679-4.338-.265 4.869.884z" class="cls-6" data-name="Path 14366" transform="translate(-19.995 -39.256)"/>
                <path id="Path_14367" d="M151.327 338.8l-4.427 1.944 3.718 2.474-3.718 2.475 3.541.53.089-.8-1.859-.088 2.922-1.856-3.187-2.563 2.744-1.5z" class="cls-7" data-name="Path 14367" transform="translate(-19.972 -39.617)"/>
                <path id="Path_14368" d="M146.966 338.8l4.427 1.944-3.718 2.474 3.807 2.475-3.63.53-.089-.8 1.948-.088-3.01-1.856 3.187-2.563-2.744-1.5z" class="cls-7" data-name="Path 14368" transform="translate(-19.95 -39.617)"/>
                <path id="Path_14369" d="M153.873 330.7c.443 1.061.089 2.209.089 3.447.177 4.242 4.427 9.81-.708 13.08-2.036 1.149-6.109 2.209-8.853.53h4.338c7.171-.177 5.666-6.717 5.755-7.424s-1.328-6.186-1.328-7.512a3.786 3.786 0 0 1 .707-2.121z" class="cls-8" data-name="Path 14369" transform="translate(-19.686 -38.675)"/>
                <path id="Path_14370" d="M124.738 329.4c-1.505 1.326-.885 2.828-.974 4.507-.177 4.242-4.427 9.81.708 13.08 2.39 1.326 7.437 2.563 10-.442 1.417-1.768 1.594-4.154.974-7.07-.708-2.828-2.036-3.8-1.948-6.1a4.926 4.926 0 0 0-1.151-3.447z" class="cls-3" data-name="Path 14370" transform="translate(-17.111 -38.524)"/>
                <path id="Path_14371" d="M135.606 258.773s-13.811-3.889-17.706 0c.354 10.075 1.328 17.587 2.922 30.313-1.505 8.484 1.239 15.908 3.453 31.9-.177 7.954 8.765 8.484 7.525-.53-.708-4.6 1.771-17.94 0-31.02z" class="cls-4" data-name="Path 14371" transform="translate(-16.647 -30.114)"/>
                <path id="Path_14372" d="M134.19 267.439l.8-8.749s-13.191-3.712-17.087.177l1.239 16.261c3.187.619 8.056.972 12.749 1.326.354 1.061.8 2.3 1.151 3.535l.354-3.535.531-7.07z" class="cls-5" data-name="Path 14372" transform="translate(-16.647 -30.119)"/>
                <path id="Path_14373" d="M155.561 15.249s11.686-6.186 23.9-1.944c12.129 4.242 22.487 23.243 21.336 42.067 1.505 18.294 1.239 27.043-1.682 46.486 1.682 20.15-9.03 24.657-9.03 24.657 2.036-5.391 3.276-10.517 3.276-14.494 0 0-.177 2.386-.266 2.563-1.239 8.484-7.879 11.842-7.7 11.489 1.062-2.475 4.427-9.987 3.276-7.512-.974 2.209-7.171 7.158-14.342 8.307 0 0 5.135-13.08-4.427-22.624 0 0 4.781 7.512 2.567 13.963 0 0 2.3-11.577-18.415-28.28-20.715-16.615 1.507-74.678 1.507-74.678z" class="cls-9" data-name="Path 14373" transform="translate(-19.78 -1.609)"/>
                <path id="Path_14374" d="M127.6 134.8l14.873.353v10.075H127.6z" class="cls-4" data-name="Path 14374" transform="translate(-17.759 -15.904)"/>
                <path id="Path_14375" d="M137 136.46c-4.427 0-9.3-.265-9.3-.265v-.619c.443-.088.885-.088 1.328-.177l13.457.265v.53a45.3 45.3 0 0 1-5.485.266z" class="cls-4" data-name="Path 14375" transform="translate(-17.771 -15.974)"/>
                <path id="Path_14376" d="M127.6 134.5v1.149a51.574 51.574 0 0 0 7.791.619 56.869 56.869 0 0 0 6.994-.354v-1.326a40.531 40.531 0 0 1-7.525.619 61.253 61.253 0 0 1-7.26-.707z" class="cls-10" data-name="Path 14376" transform="translate(-17.759 -15.869)"/>
                <path id="Path_14377" d="M88.591 83.921s-13.28-3.712-13.191 7.335c0 10.782 9.827 17.057 19.566 12.9z" class="cls-4" data-name="Path 14377" transform="translate(-11.773 -9.921)"/>
                <path id="Path_14378" d="M182.274 83.921s13.28-3.712 13.191 7.335c0 10.782-9.827 17.057-19.566 12.9z" class="cls-5" data-name="Path 14378" transform="translate(-23.298 -9.921)"/>
                <path id="Path_14379" d="M176.692 56.812s2.744 64.6-45.948 64.6-45.944-64.6-45.944-64.6 1.767-40.477 45.944-41.712c15.405-.356 43.47 5.212 45.948 41.712z" class="cls-4" data-name="Path 14379" transform="translate(-12.847 -1.989)"/>
                <path id="Path_14380" d="M154.59 122.045c20.982-9.81 26.117-36.234 27.356-50.816-4.161-5.037-7.083-8.484-7.437-8.749-.974-1.061-2.833-4.861-9.119-6.186a1647.403 1647.403 0 0 1-14.431-3.093H132.9s15.936 22.006 39.574 24.392c0 0 3.718 9.9 1.948 18.647s-4.427 11.135-4.958 13.345c-.443 1.767-11.687 9.367-14.874 12.46z" class="cls-5" data-name="Path 14380" transform="translate(-18.367 -6.419)"/>
                <path id="Path_14381" d="M130.661 53.3s1.682 15.466 13.988 20.5c0 0-8.588-.177-12.483-3.447S126.5 54.537 126.5 54.537z" class="cls-5" data-name="Path 14381" transform="translate(-17.633 -6.431)"/>
                <path id="Path_14382" d="M180.648 105.3c11.155-10.34 13.545-18.913 13.545-18.913v-.8c-3.63-3.889-11.332-1.679-11.332-1.679l-2.036 20.15c1.328.542-1.593 1.07-.177 1.242z" class="cls-10" data-name="Path 14382" transform="translate(-23.797 -9.917)"/>
                <path id="Path_14383" d="M130.3 10.3s-34.26-.8-45.946 30.931C75.147 69.6 86.656 88.424 92.765 94.7c-.885-2.563-8.676-16.173 16.113-44.9 0 0 6.374 17.764 30.632 20.857 0 0-16.113-10.075-13.811-20.5 0 0 14.254 16.968 42.849 21.034 6.374 0 2.213 20.061.443 24.392-.62 1.591 4.072-4.33 11.509-19.973 7.791-25.364-5.4-65.31-50.2-65.31z" class="cls-11" data-name="Path 14383" transform="translate(-12.405 -1.432)"/>
                <path id="Path_14384" d="M160.011 45.809c-23.018-.354-41.256-1.326-54.093-2.209a73.773 73.773 0 0 0-3.718 10.782c25.054-3.182 57.811-8.573 57.811-8.573z" class="cls-12" data-name="Path 14384" transform="translate(-14.846 -5.303)"/>
                <path id="Path_14385" d="M95.5 42.772a372.21 372.21 0 0 1-9.827-.972 30.5 30.5 0 0 0-1.239 3A53.517 53.517 0 0 0 81.6 56.029c2.922-.265 6.463-.53 10.27-.972a84.991 84.991 0 0 1 3.63-12.285z" class="cls-12" data-name="Path 14385" transform="translate(-12.484 -5.094)"/>
                <path id="Path_14386" d="M152.284 200.917l-37.272.177-10.712-48.608 20.982-6.186h14.962l21.867 5.656z" class="cls-4" data-name="Path 14386" transform="translate(-15.087 -17.241)"/>
                <path id="Path_14387" d="M140.3 153.533a1.526 1.526 0 0 1 .266-.354 3.984 3.984 0 0 1 .885-.8 4.941 4.941 0 0 1 .708-.442 9.189 9.189 0 0 1 .885-.353c.177 0 .354-.088.531-.088h3.453a8.936 8.936 0 0 1 1.682.177 12.266 12.266 0 0 1 1.682.265s-.708.088-1.682.177h-1.77a14.5 14.5 0 0 1-1.948-.177c-.354 0-.708-.088-.974-.088h-.443a.8.8 0 0 0-.443.088c-.266.088-.62.177-.885.265a5.262 5.262 0 0 0-.708.353c-.443.265-.708.53-.974.707l-.266.265z" class="cls-10" data-name="Path 14387" transform="translate(-19.216 -17.845)"/>
                <path id="Path_14388" d="M140.7 153.126a4.3 4.3 0 0 1 .885-.8l.531-.265a1.644 1.644 0 0 1 .62-.177 1.952 1.952 0 0 1 .708-.088h2.125c.443 0 .8.088 1.151.088.708.088 1.151.177 1.151.177a3.38 3.38 0 0 1-1.151.177c-.354 0-.8.088-1.239.088h-.708c-.266 0-.443-.088-.708-.088a1.953 1.953 0 0 1-.708-.088h-.62c-.177 0-.443.088-.62.088-.177.088-.354.088-.531.177-.354.177-.531.354-.708.442a1.093 1.093 0 0 1-.177.265z" class="cls-10" data-name="Path 14388" transform="translate(-19.261 -17.88)"/>
                <path id="Path_14389" d="M131.193 153.521a2.616 2.616 0 0 1-.266-.354 5.572 5.572 0 0 0-.974-.707 5.266 5.266 0 0 0-.708-.354c-.266-.088-.531-.177-.885-.265-.177 0-.266-.088-.443-.088h-.443c-.354 0-.708.088-.974.088-.708.088-1.328.088-1.948.177h-1.771a6.738 6.738 0 0 1-1.682-.177 12.27 12.27 0 0 1 1.682-.265c.531-.088 1.062-.088 1.682-.177h3.453c.177 0 .354.088.531.088a2.654 2.654 0 0 1 .885.354 4.938 4.938 0 0 1 .708.442 4.135 4.135 0 0 1 .885.8c.266.265.354.442.266.442z" class="cls-10" data-name="Path 14389" transform="translate(-17.014 -17.834)"/>
                <path id="Path_14390" d="M131.36 153.314a1.1 1.1 0 0 0-.266-.177 8.176 8.176 0 0 1-.708-.442l-.531-.265a5.644 5.644 0 0 0-.62-.177h-.62a1.953 1.953 0 0 0-.708.088c-.266 0-.443.088-.708.088h-.708a5.453 5.453 0 0 1-1.239-.088 17.293 17.293 0 0 1-1.151-.177s.443-.088 1.151-.177c.354 0 .8-.088 1.239-.088h2.125a1.729 1.729 0 0 1 .708.088 3.478 3.478 0 0 1 1.151.53 4.484 4.484 0 0 1 .62.53q.266.132.266.265z" class="cls-10" data-name="Path 14390" transform="translate(-17.358 -17.892)"/>
                <path id="Path_14391" d="M162.054 152.142c-11.244 42.858-3.984 48.607-9.384 49.226l-38.157-.354c-4.781-2.475-.62-6.275-10.712-48.607l4.781-1.414 10.27-3s.708 9.014 14.431 8.4c11.775-.442 12.572-4.861 12.837-8.484l11.686 3s3.894 1.056 4.248 1.233z" class="cls-13" data-name="Path 14391" transform="translate(-15.03 -17.427)"/>
                <path id="Path_14392" d="M134.86 136.93c-2.036 0-4.869-.265-7.26-.53s4.958.265 9.3.265a44.3 44.3 0 0 0 5.489-.265v.177c-2.395.176-4.873.353-7.529.353z" class="cls-10" data-name="Path 14392" transform="translate(-17.759 -16.09)"/>
                <path id="Path_14393" d="M141.07 201.008s13.014-8.042 13.191-12.108c0 0-.443 6.275-11.155 12.108s-2.036 0-2.036 0z" class="cls-14" data-name="Path 14393" transform="translate(-18.923 -22.193)"/>
                <path id="Path_14394" d="M154.139 207.67a3.339 3.339 0 0 0 1.417-3.27c0 1.591-.885 2.563-2.656 3.27z" class="cls-14" data-name="Path 14394" transform="translate(-20.66 -23.994)"/>
                <path id="Path_14395" d="M144.039 207.67a3.339 3.339 0 0 0 1.417-3.27c0 1.591-.885 2.563-2.656 3.27z" class="cls-14" data-name="Path 14395" transform="translate(-19.502 -23.994)"/>
                <path id="Path_14396" d="M144.939 207.67a3.339 3.339 0 0 0 1.416-3.27c0 1.591-.885 2.563-2.656 3.27z" class="cls-14" data-name="Path 14396" transform="translate(-19.605 -23.994)"/>
                <path id="Path_14397" d="M116.313 207.67a3.339 3.339 0 0 1-1.417-3.27c0 1.591.885 2.563 2.656 3.27z" class="cls-14" data-name="Path 14397" transform="translate(-16.299 -23.994)"/>
                <path id="Path_14398" d="M128.313 207.67a3.339 3.339 0 0 1-1.417-3.27c0 1.591.885 2.563 2.656 3.27z" class="cls-14" data-name="Path 14398" transform="translate(-17.675 -23.994)"/>
                <path id="Path_14399" d="M147.9 187.5c5.312.884 8.853-2.033 10.889-8.4-2.656 5.744-6.289 8.4-10.889 8.4z" class="cls-14" data-name="Path 14399" transform="translate(-20.087 -21.054)"/>
                <path id="Path_14400" d="M115.418 208c-5.135 24.215-4.072 41.89-2.036 55.147h21.248l1.062-31.2c.354 10.428.089 23.685.974 31.2H158c.531-5.214 2.745-42.155-3.63-54.97z" class="cls-15" data-name="Path 14400" transform="translate(-15.935 -24.413)"/>
                <path id="Path_14401" d="M113.4 259.435c-2.213-21.3-2.567-28.811 2.036-51.435 12.572 0 18.769.265 37.715.088-2.479 1.591-12.04.8-16.91 4.33-4.25 3.093-8.411-5.479-17.529-1.061-4.962 4.243-4.697 30.403-5.312 48.078z" class="cls-16" data-name="Path 14401" transform="translate(-15.949 -24.413)"/>
                <path id="Path_14402" d="M127 336.4l-.8-3.8 6.02.177-.708 3.535z" class="cls-3" data-name="Path 14402" transform="translate(-17.599 -38.896)"/>
                <path id="Path_14403" d="M126.866 335.7l.266 1.679 4.338-.265-4.87.886z" class="cls-6" data-name="Path 14403" transform="translate(-17.644 -39.256)"/>
                <path id="Path_14404" d="M127.266 338.8l4.427 1.944-3.718 2.474 3.807 2.475-3.63.53-.089-.8 1.859-.088-2.922-1.851 3.187-2.563-2.744-1.5z" class="cls-7" data-name="Path 14404" transform="translate(-17.69 -39.617)"/>
                <path id="Path_14405" d="M131.615 338.8l-4.427 1.944 3.718 2.474-3.807 2.475 3.63.53.089-.8-1.859-.088 2.922-1.856-3.187-2.563 2.744-1.5z" class="cls-7" data-name="Path 14405" transform="translate(-17.702 -39.617)"/>
                <path id="Path_14406" d="M123.953 330.7c-.443 1.061-.089 2.209-.089 3.447-.177 4.242-4.427 9.81.708 13.08 2.036 1.149 6.109 2.209 8.853.53h-4.338c-7.171-.177-5.666-6.717-5.755-7.424s1.328-6.186 1.328-7.512a5.955 5.955 0 0 0-.707-2.121z" class="cls-8" data-name="Path 14406" transform="translate(-17.122 -38.675)"/>
                <path id="Path_14407" d="M115.19 168.664c13.811-1.591 24.169-1.237 37.8.354.089 11.489 2.744 28.015.177 34.378-12.04.619-24.169.177-36.21 0-3.184-5.567-1.148-23.154-1.767-34.732z" class="cls-15" data-name="Path 14407" transform="translate(-16.327 -19.721)"/>
                <path id="Path_14408" d="M118.369 163.324c.708 3-4.161 4.065-5.135.972l-3.541-13.256c-.177-.53.089-.8.531-.972l3.453-.972c.531-.088.974 0 1.151.442l-.62.177z" class="cls-15" data-name="Path 14408" transform="translate(-15.699 -17.562)"/>
                <path id="Path_14409" d="M114.986 149.5c.089 0 .177 0 .177.177l-.266.088c.003-.355-.088-.265.089-.265z" class="cls-17" data-name="Path 14409" transform="translate(-16.3 -17.612)"/>
                <path id="Path_14410" d="M113.359 269.488c-.531.177-.266 3.447-.089 3.358a86.181 86.181 0 0 0 21.867-.088c.177-.088.354-3.093-.266-3.358v.707c-7.171.265-14.254.354-21.336 0z" class="cls-16" data-name="Path 14410" transform="translate(-16.09 -31.55)"/>
                <path id="Path_14411" d="M137.6 270.153c.177 0 .177-.088 0-.353z" class="cls-17" data-name="Path 14411" transform="translate(-18.906 -31.596)"/>
                <path id="Path_14412" d="M113.481 270.153c-.177 0-.177-.088-.089-.353z" class="cls-17" data-name="Path 14412" transform="translate(-16.123 -31.596)"/>
                <path id="Path_14413" d="M139.759 269.488c-.531.177-.266 3.447-.089 3.358a86.181 86.181 0 0 0 21.867-.088c.177-.088.354-3.093-.266-3.358v.707c-7.171.265-14.254.354-21.336 0z" class="cls-16" data-name="Path 14413" transform="translate(-19.118 -31.55)"/>
                <path id="Path_14414" d="M164 270.153c.177 0 .177-.088 0-.353z" class="cls-17" data-name="Path 14414" transform="translate(-21.933 -31.596)"/>
                <path id="Path_14415" d="M139.881 270.153c-.177 0-.177-.088-.089-.353z" class="cls-17" data-name="Path 14415" transform="translate(-19.151 -31.596)"/>
                <path id="Path_14416" d="M117.2 203.846c11.952.354 23.992.442 35.944 0 2.479-3.977 0-23.331.089-32.346.885 19-2.3 19.531-1.771 29.076-6.109 2.298-30.721.353-34.262 3.27z" class="cls-16" data-name="Path 14416" transform="translate(-16.566 -20.17)"/>
                <path id="Path_14417" d="M116.108 207.9l38.334.354a10.842 10.842 0 0 1 1.239 3.182l-40.282-.354z" class="cls-18" data-name="Path 14417" transform="translate(-16.36 -24.401)"/>
                <path id="Path_14418" d="M152.12 206.8a.6.6 0 0 1 .62.619v4.6a.6.6 0 0 1-.62.619.6.6 0 0 1-.62-.619v-4.6a.745.745 0 0 1 .62-.619z" class="cls-19" data-name="Path 14418" transform="translate(-20.5 -24.273)"/>
                <path id="Line_9" d="M.531 20.768L0 0" class="cls-20" data-name="Line 9" transform="translate(119.225 186.857)"/>
                <path id="Path_14419" d="M140.825 212c-.177 5.656 1.682 15.819-2.125 15.643" class="cls-21" data-name="Path 14419" transform="translate(-19.032 -24.878)"/>
                <path id="Path_14420" d="M141.622 212c-.177 6.982 1.948 16.084-2.922 16.173" class="cls-22" data-name="Path 14420" transform="translate(-19.032 -24.878)"/>
                <path id="Path_14421" d="M115.891 166.336l1.682-.442a1.137 1.137 0 0 1 1.417.8l.177.619a1.135 1.135 0 0 1-.8 1.414l-1.682.442a1.137 1.137 0 0 1-1.417-.8l-.177-.619a1.1 1.1 0 0 1 .8-1.414zm.177.177a.985.985 0 0 0-.708 1.149l.177.53a.987.987 0 0 0 1.151.707l1.328-.353a.985.985 0 0 0 .708-1.149l-.177-.53a.987.987 0 0 0-1.151-.707z" class="cls-23" data-name="Path 14421" transform="translate(-16.32 -19.513)"/>
                <path id="Path_14422" d="M116.977 169a.46.46 0 0 1 .354.177l.089.265a.459.459 0 0 1-.177.354.46.46 0 0 1-.354-.177l-.089-.265c0-.177 0-.354.177-.354z" class="cls-24" data-name="Path 14422" transform="translate(-16.521 -19.88)"/>
                <path id="Path_14423" d="M118.373 168.6a.46.46 0 0 1 .354.177l.089.265a.459.459 0 0 1-.177.354.46.46 0 0 1-.354-.177l-.089-.265c-.089-.177.004-.354.177-.354z" class="cls-25" data-name="Path 14423" transform="translate(-16.677 -19.833)"/>
                <path id="Path_14424" d="M118.823 165.13c.708 3-4.161 4.065-5.135.972l-.089-.354 5.046-1.149z" class="cls-15" data-name="Path 14424" transform="translate(-16.154 -19.368)"/>
                <path id="Line_10" d="M0 .972L4.338 0" class="cls-26" data-name="Line 10" transform="translate(97.889 145.762)"/>
                <path id="Path_14425" d="M153.691 163.324c-.708 3 4.161 4.065 5.135.972l3.541-13.256c.177-.53-.089-.8-.531-.972l-3.453-.972c-.531-.088-.974 0-1.151.442l.62.177z" class="cls-15" data-name="Path 14425" transform="translate(-20.743 -17.562)"/>
                <path id="Path_14426" d="M158.077 149.5c-.089 0-.177 0-.177.177l.266.088c.088-.355.088-.265-.089-.265z" class="cls-17" data-name="Path 14426" transform="translate(-21.234 -17.612)"/>
                <path id="Path_14427" d="M156.67 166.336l-1.682-.442a1.137 1.137 0 0 0-1.417.8l-.177.619a1.135 1.135 0 0 0 .8 1.414l1.682.442a1.137 1.137 0 0 0 1.417-.8l.177-.619a1.045 1.045 0 0 0-.8-1.414zm-.177.177a.985.985 0 0 1 .708 1.149l-.177.53a.987.987 0 0 1-1.151.707l-1.328-.353a.985.985 0 0 1-.708-1.149l.177-.53a.987.987 0 0 1 1.151-.707z" class="cls-27" data-name="Path 14427" transform="translate(-20.712 -19.513)"/>
                <path id="Path_14428" d="M156.043 169a.46.46 0 0 0-.354.177l-.089.265a.459.459 0 0 0 .177.354.46.46 0 0 0 .354-.177l.089-.265c.088-.177 0-.354-.177-.354z" class="cls-28" data-name="Path 14428" transform="translate(-20.97 -19.88)"/>
                <path id="Path_14429" d="M154.743 168.6a.46.46 0 0 0-.354.177l-.089.265a.459.459 0 0 0 .177.354.46.46 0 0 0 .354-.177l.089-.265c0-.177-.089-.354-.177-.354z" class="cls-29" data-name="Path 14429" transform="translate(-20.821 -19.833)"/>
                <path id="Path_14430" d="M153.691 165.13c-.708 3 4.161 4.065 5.135.972l.089-.354-5.046-1.149z" class="cls-15" data-name="Path 14430" transform="translate(-20.743 -19.368)"/>
                <path id="Line_11" d="M4.338.972L0 0" class="cls-26" data-name="Line 11" transform="translate(133.302 145.762)"/>
                <path id="Path_14431" d="M115.8 169.751c12.217-2.121 28.684-.8 36.564.265" class="cls-21" data-name="Path 14431" transform="translate(-16.406 -19.836)"/>
                <path id="Path_14432" d="M135 266.246c2.39-2.386.974-23.42 3.364-32.346 3.01 1.5 2.213 25.894 4.958 32.346h-3.984c-.974-9.987-.62-19.708-.974-29.606l-1.064 29.429z" class="cls-16" data-name="Path 14432" transform="translate(-18.608 -27.423)"/>
                <path id="Path_14433" d="M153.6 211.8c.354 10.428 4.427 9.456 8.853 10.075" class="cls-30" data-name="Path 14433" transform="translate(-20.741 -24.855)"/>
                <path id="Path_14434" d="M154.5 211.8c.354 10.428 5.046 8.661 7.968 9.279" class="cls-22" data-name="Path 14434" transform="translate(-20.844 -24.855)"/>
                <path id="Path_14435" d="M154.5 212.3c.62 8.661 4.072 8.661 7.879 8.838-4.072-2.038-6.551-.531-7.879-8.838z" class="cls-16" data-name="Path 14435" transform="translate(-20.844 -24.913)"/>
                <path id="Path_14436" d="M121.953 211.8c-.354 10.428-4.427 9.456-8.853 10.075" class="cls-30" data-name="Path 14436" transform="translate(-16.096 -24.855)"/>
                <path id="Path_14437" d="M121.168 211.8c-.354 10.428-5.046 8.661-7.968 9.279" class="cls-22" data-name="Path 14437" transform="translate(-16.108 -24.855)"/>
                <path id="Path_14438" d="M121.179 212.3c-.62 8.661-4.072 8.661-7.879 8.838 4.072-2.038 6.551-.531 7.879-8.838z" class="cls-16" data-name="Path 14438" transform="translate(-16.119 -24.913)"/>
                <path id="Path_14439" d="M122.22 206a.6.6 0 0 1 .62.619v5.3a.6.6 0 0 1-.62.619.6.6 0 0 1-.62-.619v-5.3a.745.745 0 0 1 .62-.619z" class="cls-19" data-name="Path 14439" transform="translate(-17.071 -24.18)"/>
                <path id="Path_14440" d="M159.7 149.4c4.338 1.237.266 7.865.443 11.842l2.744-10.163a.668.668 0 0 0-.443-.972z" class="cls-16" data-name="Path 14440" transform="translate(-21.44 -17.601)"/>
                <path id="Path_14441" d="M141.8 167.8s1.239 23.066.354 25.187c-.885 2.213 3.187 5.568-.354-25.187z" class="cls-16" data-name="Path 14441" transform="translate(-19.388 -19.74)"/>
                <path id="Path_14442" d="M135.855 167.6s-.885 2.475.177 2.74c1.063.353-.177-2.74-.177-2.74z" class="cls-16" data-name="Path 14442" transform="translate(-18.666 -19.717)"/>
                <path id="Path_14443" d="M137.492 167.7s-.354 5.568.62 6.275c.888.707-.62-6.275-.62-6.275z" class="cls-16" data-name="Path 14443" transform="translate(-18.886 -19.728)"/>
                <path id="Path_14444" d="M137.8 167.7a5.907 5.907 0 0 1 1.948 3c.442 1.861 1.682-2.028-1.948-3z" class="cls-16" data-name="Path 14444" transform="translate(-18.929 -19.728)"/>
                <path id="Path_14445" d="M124.8 296.3a6.633 6.633 0 0 0 4.338 0l-2.479 1.679z" class="cls-10" data-name="Path 14445" transform="translate(-17.438 -34.677)"/>
                <path id="Path_14446" d="M149.9 296.3a6.633 6.633 0 0 0 4.338 0l-2.479 1.679z" class="cls-10" data-name="Path 14446" transform="translate(-20.316 -34.677)"/>
                <path id="Path_14447" d="M129.074 167.7s-1.062 3.447-.089 4.154-.885.53-.885.53z" class="cls-16" data-name="Path 14447" transform="translate(-17.816 -19.728)"/>
                <path id="Path_14448" d="M128.116 168s-.974 1.061-.708 1.414-.708.354-.708.354-.089-1.946 1.416-1.768z" class="cls-16" data-name="Path 14448" transform="translate(-17.656 -19.762)"/>
                <path id="Path_14449" d="M144.631 168c.531 1.237-1.505 4.861.089 3.977.443-.177.443-3 .177-3.623-.178-.266-.178-.089-.266-.354z" class="cls-16" data-name="Path 14449" transform="translate(-19.651 -19.763)"/>
                <path id="Path_14450" d="M146.4 168.088c.531.8.443 7.424.089 8.484-.443 1.414 1.239 4.33 1.239-2.209a9.575 9.575 0 0 0-.708-4.154c-.177-.442-.354-1.591-.531-2.209z" class="cls-16" data-name="Path 14450" transform="translate(-19.915 -19.763)"/>
                <path id="Path_14451" d="M149.2 168.3c.708 1.944.531 5.833 1.505 8.926 1.505 5.037.354-.884-.089-2.033s-.62-5.3-1.239-6.186c-.088 0-.177-.619-.177-.707z" class="cls-16" data-name="Path 14451" transform="translate(-20.236 -19.798)"/>
                <path id="Path_14452" d="M124.219 167.9c-1.151 5.3-2.833 6.451-3.1 12.108 0 0-.443 7.247-1.771 5.391-1.505-2.121 1.859-6.01 1.859-9.368-.087-1.945 2.127-4.154 3.012-8.131z" class="cls-16" data-name="Path 14452" transform="translate(-16.768 -19.752)"/>
                <path id="Path_14453" d="M120.354 173.777l7.879-.177.266 6.628-4.161 3.535-4.338-3.8z" class="cls-19" data-name="Path 14453" transform="translate(-16.887 -20.414)"/>
                <path id="Path_14454" d="M121.2 174.788l6.286-.088.177 4.949-2.833 2.209-3.453-2.121z" class="cls-21" data-name="Path 14454" transform="translate(-17.025 -20.542)"/>
                <path id="Path_14455" d="M155 168.9c.885 1.061 1.594 9.28 1.505 11.842 0 .354 1.948-.354.354-5.214-.708-2.121-.531-4.065-1.771-5.921-.088-.088.001-.619-.088-.707z" class="cls-16" data-name="Path 14455" transform="translate(-20.901 -19.868)"/>
                <path id="Path_14456" d="M153.757 168.8c-.089.53-.8 4.065-.885 4.065-.798 0 .796-3.8.885-4.065z" class="cls-16" data-name="Path 14456" transform="translate(-20.632 -19.856)"/>
                <path id="Path_14457" d="M121.1 168.2c0 .619-.177 2.651.266 3 1.146-1.851-.266-1.409-.266-3z" class="cls-16" data-name="Path 14457" transform="translate(-17.009 -19.787)"/>
                <path id="Path_14458" d="M119.229 168.4c-.885 2.475-.8 3.182-2.833 4.772-.354-.707 2.479-3.972 2.833-4.772z" class="cls-16" data-name="Path 14458" transform="translate(-16.471 -19.81)"/>
                <path id="Path_14459" d="M131.743 167.7c-.354 2.651-1.062 1.149.708 1.149.708 0 1.328-1.149-.531-1.061-.089 0-.177 0-.177-.088z" class="cls-16" data-name="Path 14459" transform="translate(-18.183 -19.728)"/>
                <path id="Path_14460" d="M119.166 190.753c6.64 2.386 5.666 1.061 11.421 1.856 0 0-6.2 4.33-7.614 6.54-2.567 3.889.177-3.182-1.328-5.037-.708-.884-2.3-3.535-2.744-3.712z" class="cls-16" data-name="Path 14460" transform="translate(-16.761 -22.367)"/>
                <path id="Path_14461" d="M99.228 178.368l-1.328-7.777.708 1.237L98.7 169z" class="cls-31" data-name="Path 14461" transform="translate(-14.353 -19.88)"/>
                <path id="Path_14462" d="M162.517 106.979c3.718 0 6.817-1.237 6.817-2.74s-3.1-2.74-6.817-2.74-6.817 1.237-6.817 2.74 3.01 2.74 6.817 2.74z" class="cls-32" data-name="Path 14462" transform="translate(-20.982 -12.034)"/>
                <path id="Path_14463" d="M105.017 106.979c3.718 0 6.817-1.237 6.817-2.74s-3.1-2.74-6.817-2.74-6.817 1.237-6.817 2.74 3.1 2.74 6.817 2.74z" class="cls-32" data-name="Path 14463" transform="translate(-14.387 -12.034)"/>
                <path id="Path_14464" d="M106.294 81.172a4.282 4.282 0 0 0-3.63 2.121 5.373 5.373 0 0 1-3.01-3.093s-.177 3.447 2.479 4.772v.707A4.385 4.385 0 0 1 99.3 84.53a4.1 4.1 0 0 0 2.833 2.386v5.037a4.073 4.073 0 1 0 8.145 0v-6.627a3.952 3.952 0 0 0-3.984-4.154z" class="cls-33" data-name="Path 14464" transform="translate(-14.514 -9.558)"/>
                <path id="Path_14465" d="M157.884 81.172a4.282 4.282 0 0 1 3.63 2.121 5.373 5.373 0 0 0 3.01-3.093s.177 3.447-2.479 4.772v.707a4.385 4.385 0 0 0 2.833-1.149 4.1 4.1 0 0 1-2.833 2.386v5.037a4.073 4.073 0 1 1-8.145 0v-6.627a4.005 4.005 0 0 1 3.984-4.154z" class="cls-33" data-name="Path 14465" transform="translate(-20.775 -9.558)"/>
                <ellipse id="Ellipse_4617" cx="1.505" cy="1.591" class="cls-34" data-name="Ellipse 4617" rx="1.505" ry="1.591" transform="translate(134.276 72.498)"/>
                <ellipse id="Ellipse_4618" cx="1.505" cy="1.591" class="cls-34" data-name="Ellipse 4618" rx="1.505" ry="1.591" transform="translate(89.036 72.498)"/>
                <path id="Path_14468" d="M99.229 175.271s-1.151 2.386-8.5 10.075c-3.01 3.8-6.286 5.037-13.9 2.386-8.942-3.447-19.566-6.717-23.9-8.4-4.6-1.149-11.244-4.6-16.91-4.949-8.765-.53-18.769-6.717-12.66-12.549 3.1-2.033 8.676 2.386 10.181 2.3.8 0 3.1-.088-2.036-1.326-2.656-.619-1.062-2.386-.708-2.386a11.407 11.407 0 0 1 9.384 3.8c4.427 5.037 13.368 5.833 19.388 7.6 9.119 2.475 17.264 5.391 19.743 3.623C85.063 170.587 94.271 153 94.271 153z" class="cls-4" data-name="Path 14468" transform="translate(-5.589 -18.02)"/>
                <path id="Path_14469" d="M107.155 175.282s-.885 1.856-6.2 7.689L90.6 171.836c5.4-6.893 11.686-18.736 11.686-18.736z" class="cls-13" data-name="Path 14469" transform="translate(-13.516 -18.031)"/>
                <path id="Path_14479" d="M90.171 174.213a26.251 26.251 0 0 0 13.722 9.81l.443-.442c.266.265-3.1 3.27-3.364 3.093-5.578-1.679-11.155-6.363-13.28-9.81-.531-.265 2.39-3.712 2.922-3.27z" class="cls-31" data-name="Path 14479" transform="translate(-13.175 -20.409)"/>
                <path id="Path_14480" d="M163.7 182.778s-3.718 5.3-11.952 12.461c-3.984 3.535-5.666 5.568-12.129 2.475-8.853-3.623-19.388-6.8-23.638-8.661-4.6-1.237-11.067-5.3-16.733-5.833-8.676-.8-18.592-7.247-12.306-12.9 3.187-1.944 8.676 2.563 10.093 2.563.8 0 3.1 0-2.036-1.414-2.656-.707-.974-2.386-.62-2.475 2.213-.354 6.463.707 9.3 4.065 4.25 5.126 13.014 5.921 18.769 8.4 9.03 2.74 17.441 6.01 20.185 6.01 10.978-7.689 13.545-14.317 13.545-14.317z" class="cls-4" data-name="Path 14480" transform="translate(-12.869 -19.871)"/>
                <path id="Path_14481" d="M178.6 172.585s-3.364 6.982-7.083 12.991l-11.417-9.191a72.677 72.677 0 0 0 4.427-6.8c.885-6.275 2.656-11.224 3.984-16.88 5.4 2.823 14.076 9.186 10.089 19.88z" class="cls-13" data-name="Path 14481" transform="translate(-21.486 -17.985)"/>
                <path id="Path_14482" d="M158.682 176.114c3.01 4.065 8.942 8.131 14.077 9.191l.443-.442c.266.265-3.01 3.447-3.187 3.27-5.578-1.5-11.421-5.833-13.722-9.191-.531-.177 2.213-3.889 2.833-3.447z" class="cls-31" data-name="Path 14482" transform="translate(-21.042 -20.63)"/>
                <path id="Path_14483" d="M162.2 171.207c.443-.177.62-1.591 2.213-2.563 0 0 1.505-1.856 1.594-1.944.708 0-1.151 1.414.354.619.177-.088 1.505.442.354.088-.089 0-.708.177-.708.354a1.129 1.129 0 0 0-.62.442c-.089 0 1.771.088 1.151.265-.354.088-.089-.619-1.859.442-1.328.8-.974.972-1.859 1.856a3.5 3.5 0 0 0-.62.441z" class="cls-31" data-name="Path 14483" transform="translate(-21.727 -19.612)"/>
                <g id="Group_9094" data-name="Group 9094" transform="translate(41.891)">
                    <path id="Path_14484" d="M161.8 4.273s2.656-2.828 6.109-1.237 3.63 7.335 3.63 7.335z" class="cls-19" data-name="Path 14484" transform="translate(-63.572 -.532)"/>
                    <path id="Path_14485" d="M147.654 45.555c-8.322-15.112-25.763-25.1-61.53-24.657-4.161 0-9.65 1.414-16.024 3.623 15.847-1.768 26.471 2.916 42.584 16.526 14.076 11.225 25.586 12.108 34.97 4.508z" class="cls-19" data-name="Path 14485" transform="translate(-53.056 -2.663)"/>
                    <path id="Path_14486" d="M145.446 45.843c-12.306 6.717-26.117 1.5-40.813-10.517-12.66-10.075-24.966-14.494-36.741-10.517-19.92 8.042-21.956 33.229-8.322 35.969-10.535-8.926-4.07-25.099 7.083-30.578 18.147-9.014 31.871 5.3 36.647 9.1 18.061 14.052 31.871 16.084 42.23 8.572z" class="cls-19" data-name="Path 14486" transform="translate(-50.848 -2.95)"/>
                    <path id="Path_14487" d="M103.736 39.808c-13.368-12.461-25.055-14.582-35.59-9.633C55.043 36.273 49.731 52.8 60 61.283a39.029 39.029 0 0 0 17.883 1.326c.354-16.173 4.781-25.364 10.889-32.876.267-.265 8.678 3.8 14.964 10.075z" class="cls-19" data-name="Path 14487" transform="translate(-51.279 -3.455)"/>
                    <path id="Path_14488" d="M99.2 18.678c9.561-14.14 24.966-21.3 49.666-17.322 23.992 4.6 35.5 28.1 33.465 60.714a104.2 104.2 0 0 0-31.252-16.88z" class="cls-19" data-name="Path 14488" transform="translate(-56.393 -.266)"/>
                </g>
                <path id="Path_14489" d="M164.8 4.4c15.759 13.61 14.077 29.606 6.286 46.044 7.26 3.623 14.342 8.749 21.159 13.345C190.828 23.578 178.434 12.354 164.8 4.4z" class="cls-17" data-name="Path 14489" transform="translate(-22.025 -.747)"/>
                <path id="Path_14490" d="M98.948 21.1c8.056 5.744 5.755.884 22.93 12.991-9.3 6.893-6.286-2.121-24.877-7.335 12.394 5.479 20.8 17.057 34.793 20.768 5.578 1.768 11.421 1.326 17.352-.707z" class="cls-17" data-name="Path 14490" transform="translate(-14.25 -2.688)"/>
                <path id="Path_14491" d="M68.185 30.5l-6.906 13.787c-3.63 7.158 12.217 2.916 18.326 4.33a69.222 69.222 0 0 0-1.682 14.052 35.113 35.113 0 0 1-17.883-1.061C50.655 53.831 54.728 37.3 68.185 30.5z" class="cls-17" data-name="Path 14491" transform="translate(-9.427 -3.781)"/>
                <g id="Group_9124" data-name="Group 9124" transform="translate(0 89.466)">
                    <path id="Path_14549" d="M188.09 117.092c7.522 0 13.79-5.824 13.79-13.146 0-7.155-6.089-13.146-13.79-13.146s-13.79 5.824-13.79 13.146 6.089 13.146 13.79 13.146z" class="cls-35" data-name="Path 14549" transform="translate(-164.629 -78.652)"/>
                    <path id="Path_14550" d="M183.134 111.546s-.179-7.821-1.254-8.154-3.224 3.162-1.075 2.163 2.328-2.33 2.507-3.994c.179-1.5-1.254-3.162-1.612-1.83-.358 1.165 2.686.832 2.328-1.331" class="cls-36" data-name="Path 14550" transform="translate(-160.21 -73.605)"/>
                    <path id="Path_14551" d="M178.866 105.5h12.357a1.183 1.183 0 0 1 1.254 1.165 1.183 1.183 0 0 1-1.254 1.165h-12.357a1.183 1.183 0 0 1-1.254-1.165c-.179-.499.538-1.165 1.254-1.165z" class="cls-37" data-name="Path 14551" transform="translate(-162.031 -68.891)"/>
                    <path id="Path_14552" d="M191.211 107h-12.357a1.183 1.183 0 0 0-1.254 1.165 1.183 1.183 0 0 0 1.254 1.165h12.357a1.183 1.183 0 0 0 1.254-1.165 1.183 1.183 0 0 0-1.254-1.165z" class="cls-38" data-name="Path 14552" transform="translate(-162.019 -67.894)"/>
                    <path id="Path_14553" d="M178.866 108.4h12.357a1.183 1.183 0 0 1 1.254 1.165 1.183 1.183 0 0 1-1.254 1.165h-12.357a1.183 1.183 0 0 1-1.254-1.165c-.179-.665.538-1.165 1.254-1.165z" class="cls-39" data-name="Path 14553" transform="translate(-162.031 -66.965)"/>
                    <path id="Path_14554" d="M183.6 109.8h-4.3c0 1.331 1.97 2.33 4.3 2.33s4.3-1 4.3-2.33z" class="cls-40" data-name="Path 14554" transform="translate(-160.674 -66.035)"/>
                    <path id="Path_14555" d="M182.07 93.318l-1.97-6.989 2.328-2.829 1.433 9.319z" class="cls-41" data-name="Path 14555" transform="translate(-160.041 -83.5)"/>
                    <path id="Path_14556" d="M189.2 93.962l.716 1.165 9.313-2.5-2.507-1.83z" class="cls-41" data-name="Path 14556" transform="translate(-152.844 -78.652)"/>
                    <path id="Path_14557" d="M190.2 101.7h5.552l.716 2.163z" class="cls-41" data-name="Path 14557" transform="translate(-152.053 -71.414)"/>
                    <path id="Path_14558" d="M178.75 93.962l-.716 1.165-9.134-2.5 2.328-1.83z" class="cls-41" data-name="Path 14558" transform="translate(-168.9 -78.652)"/>
                    <path id="Path_14559" d="M176.168 101.7h-5.552l-.716 2.163z" class="cls-41" data-name="Path 14559" transform="translate(-168.109 -71.414)"/>
                </g>
                <path id="Path_14648" d="M66.8 110a28.735 28.735 0 0 0 33.48-.8s-3.995 5.3-13.7 6.54C76.787 117.065 66.8 110 66.8 110z" class="cls-42" data-name="Path 14648" transform="translate(31.541 -10.681)"/>
            </g>
        </g>
    </g>
</svg>
