<svg xmlns="http://www.w3.org/2000/svg" viewBox="2797 4190 16 16">
    <defs>
        <style>
            .cls-1{fill:#fff}
        </style>
    </defs>
    <g id="phone_icon" transform="translate(2796.999 4190)">
        <path id="Path_14657" d="M20.892 0h-6.717A1.176 1.176 0 0 0 13 1.175v13.65A1.176 1.176 0 0 0 14.175 16h6.717a1.176 1.176 0 0 0 1.175-1.175V1.175A1.176 1.176 0 0 0 20.892 0zm-7.359 2.133h8v10.134h-8zm.641-1.6h6.717a.642.642 0 0 1 .642.641V1.6h-8v-.425a.642.642 0 0 1 .642-.642zm6.717 14.933h-6.716a.642.642 0 0 1-.641-.641V12.8h8v2.025a.642.642 0 0 1-.642.642z" class="cls-1" data-name="Path 14657" transform="translate(-9.533)"/>
        <path id="Path_14658" d="M27.067 49a1.067 1.067 0 1 0 1.067 1.067A1.068 1.068 0 0 0 27.067 49zm0 1.6a.533.533 0 1 1 .533-.533.534.534 0 0 1-.533.533z" class="cls-1" data-name="Path 14658" transform="translate(-19.066 -35.933)"/>
        <path id="Path_14659" d="M25.267 3.533h1.067a.267.267 0 0 0 0-.533h-1.067a.267.267 0 0 0 0 .533z" class="cls-1" data-name="Path 14659" transform="translate(-18.333 -2.2)"/>
        <path id="Path_14660" d="M32.267 3.533h.267a.267.267 0 1 0 0-.533h-.267a.267.267 0 0 0 0 .533z" class="cls-1" data-name="Path 14660" transform="translate(-23.466 -2.2)"/>
        <path id="Path_14661" d="M55.36 4.354a.267.267 0 0 0-.377.377 2.558 2.558 0 0 1 0 3.614.267.267 0 1 0 .377.377 3.092 3.092 0 0 0 0-4.368z" class="cls-1" data-name="Path 14661" transform="translate(-40.263 -3.136)"/>
        <path id="Path_14662" d="M51.149 6.63a.267.267 0 1 0-.377.377 1.751 1.751 0 0 1 0 2.474.267.267 0 1 0 .377.377 2.285 2.285 0 0 0 0-3.228z" class="cls-1" data-name="Path 14662" transform="translate(-37.175 -4.805)"/>
        <path id="Path_14663" d="M1.281 4.731A.267.267 0 0 0 .9 4.354a3.092 3.092 0 0 0 0 4.368.267.267 0 0 0 .377-.377 2.558 2.558 0 0 1 .004-3.614z" class="cls-1" data-name="Path 14663" transform="translate(0 -3.136)"/>
        <path id="Path_14664" d="M6.14 6.354a.266.266 0 0 0-.377 0 2.284 2.284 0 0 0 0 3.228.267.267 0 0 0 .377-.382 1.751 1.751 0 0 1 0-2.474.267.267 0 0 0 0-.372z" class="cls-1" data-name="Path 14664" transform="translate(-3.736 -4.602)"/>
    </g>
</svg>
