<svg xmlns="http://www.w3.org/2000/svg" viewBox="2797.5 4130 15.62 15.62">
    <defs>
        <style>
            .cls-1{fill:#fff}
        </style>
    </defs>
    <g id="place_icon" transform="translate(2797.5 4130)">
        <path id="Path_2890" d="M24.822 15.645A1.822 1.822 0 1 0 23 13.822a1.824 1.824 0 0 0 1.822 1.823zm0-3.124a1.3 1.3 0 1 1-1.3 1.3 1.3 1.3 0 0 1 1.3-1.3z" class="cls-1" data-name="Path 2890" transform="translate(-17.013 -8.876)"/>
        <path id="Path_2891" d="M15.638 14.255l3.994-5.768a5.688 5.688 0 0 0-.464-7.024 4.992 4.992 0 0 0-7.06 0 5.687 5.687 0 0 0-.47 7.016zM12.476 1.83a4.472 4.472 0 0 1 6.324 0 5.139 5.139 0 0 1 .409 6.352l-3.571 5.158-3.577-5.166a5.138 5.138 0 0 1 .415-6.344z" class="cls-1" data-name="Path 2891" transform="translate(-7.875)"/>
        <path id="Path_2892" d="M10.964 43a.26.26 0 0 0-.061.517c2.738.322 4.2 1.191 4.2 1.694 0 .707-2.773 1.692-7.289 1.692S.521 45.919.521 45.212c0-.5 1.458-1.372 4.2-1.694A.26.26 0 0 0 4.655 43C1.914 43.324 0 44.233 0 45.212c0 1.1 2.683 2.213 7.81 2.213s7.81-1.113 7.81-2.213c0-.979-1.915-1.888-4.656-2.212z" class="cls-1" data-name="Path 2892" transform="translate(0 -31.805)"/>
    </g>
</svg>
