<svg xmlns="http://www.w3.org/2000/svg" viewBox="2063.554 562.233 22.14 22.14">
    <defs>
        <style>
            .cls-1{fill:#63add7}
        </style>
    </defs>
    <g id="play-button" transform="translate(2063.554 562.233)">
        <g id="Group_9108" data-name="Group 9108">
            <g id="Group_9107" data-name="Group 9107">
                <path id="Path_14643" d="M20.653 5.537A11.065 11.065 0 0 0 .383 8.206a11.065 11.065 0 0 0 7.824 13.552 11.125 11.125 0 0 0 2.882.382 11.069 11.069 0 0 0 9.565-16.6zm-.008 8.1a9.913 9.913 0 0 1-18.16 2.391 9.92 9.92 0 0 1 8.57-14.875 9.968 9.968 0 0 1 2.582.342 9.913 9.913 0 0 1 7.009 12.141z" class="cls-1" data-name="Path 14643" transform="translate(-.001)"/>
            </g>
        </g>
        <g id="Group_9110" data-name="Group 9110" transform="translate(7.456 5.755)">
            <g id="Group_9109" data-name="Group 9109">
                <path id="Path_14644" d="M181.345 137.353l-7.114-4.108a1.206 1.206 0 0 0-1.809 1.044v8.211a1.2 1.2 0 0 0 1.809 1.044l7.114-4.107a1.206 1.206 0 0 0 0-2.089zm-.576 1.091l-7.114 4.107a.053.053 0 0 1-.08-.046v-8.215a.048.048 0 0 1 .027-.046.054.054 0 0 1 .027-.008.05.05 0 0 1 .026.008l7.114 4.108a.054.054 0 0 1 0 .093z" class="cls-1" data-name="Path 14644" transform="translate(-172.422 -133.082)"/>
            </g>
        </g>
    </g>
</svg>
