<svg xmlns="http://www.w3.org/2000/svg" viewBox="2681.823 4283 24 21">
    <defs>
        <style>
            .cls-1{fill:#fff}
        </style>
    </defs>
    <g id="send_icon" transform="translate(2199.823 4289.32)">
        <g id="Group_9138" data-name="Group 9138" transform="translate(482 -6.32)">
            <path id="Path_14656" d="M23.884 32.789a.382.382 0 0 0-.406-.083L.245 41.757a.385.385 0 0 0-.045.693l4.81 2.721 1.671 8.193a.384.384 0 0 0 .068.158l.009.012a.383.383 0 0 0 .24.141h.061a.382.382 0 0 0 .258-.1l.015-.014 3.625-3.645a.384.384 0 1 0-.542-.543L7.566 52.24l.615-5.284 8.7 4.787a.381.381 0 0 0 .274.037l.028-.008a.382.382 0 0 0 .214-.174l.007-.012a.385.385 0 0 0 .024-.057l6.554-18.335a.385.385 0 0 0-.098-.405zm-22.607 9.39l18.991-7.4-14.931 9.694zm6.351 3.866a.384.384 0 0 0-.091.107l-.009.017a.384.384 0 0 0-.041.14l-.531 4.563L5.778 45.1l12.9-8.371zm9.224 4.808l-8.31-4.575 14.236-12z" class="cls-1" data-name="Path 14656" transform="translate(0 -32.68)"/>
        </g>
    </g>
</svg>
