<svg xmlns="http://www.w3.org/2000/svg" viewBox="2901.133 4299 20.673 16.792">
    <defs>
        <style>
            .cls-1{fill:#fff}
        </style>
    </defs>
    <g id="twitter_icon" transform="translate(2901.133 4299)">
        <g id="Group_9141" data-name="Group 9141">
            <path id="Path_14669" d="M20.674 59.428a8.469 8.469 0 0 1-2.435.668 4.258 4.258 0 0 0 1.861-2.345 8.549 8.549 0 0 1-2.695 1.03 4.244 4.244 0 0 0-7.226 3.866 12.04 12.04 0 0 1-8.74-4.431 4.246 4.246 0 0 0 1.312 5.661 4.241 4.241 0 0 1-1.921-.532v.055a4.245 4.245 0 0 0 3.4 4.158 4.3 4.3 0 0 1-1.117.149 4.07 4.07 0 0 1-.8-.079 4.243 4.243 0 0 0 3.961 2.945 8.509 8.509 0 0 1-5.267 1.812A9.011 9.011 0 0 1 0 72.325a11.987 11.987 0 0 0 6.5 1.908 11.982 11.982 0 0 0 12.067-12.065l-.014-.549a8.469 8.469 0 0 0 2.121-2.191z" class="cls-1" data-name="Path 14669" transform="translate(-.001 -57.441)"/>
        </g>
    </g>
</svg>
